<svg xmlns="http://www.w3.org/2000/svg" width="240" height="240" fill="none"><path d="M67.901 88.36c-.156.939-.446 1.697-.849 2.335l8.124-2.792a10.961 10.961 0 0 0 8.043-6.334l14.828-33.374a10.96 10.96 0 0 1 2.85-3.846l37.497-32.416-12.386-8.153a10.76 10.76 0 0 0-14.782 2.88L76.331 57.22a10.78 10.78 0 0 0-1.765 4.364l-6.665 26.774zm11.206 87.929a10.824 10.824 0 0 0-1.61-.152l-14.133-.278a10.782 10.782 0 0 1-10.463-9.337l-.064-.473c-.32-2.359-4.392-6.195-8.455-10.023-4.036-3.801-8.063-7.594-8.394-9.922l-3.437-29.578a10.79 10.79 0 0 1 6.132-11.304l1.998-.946a10.868 10.868 0 0 0-.458 2.133l-1.708 15.119c-.268 2.376 2.728 7.139 5.73 11.913 3.024 4.807 6.055 9.625 5.768 12.028l-.058.482a10.973 10.973 0 0 0 7.92 11.867l13.84 3.889c5.551 1.559 8.945 7.163 7.762 12.814zm106.536 49.655c1.026.315 2.074.466 3.113.466 4.61 0 9.035-2.976 10.405-7.899l8-28.744a10.792 10.792 0 0 0-5.889-12.701 10.787 10.787 0 0 1-5.69-6.28l-9.675-28.006c-.012.391 0 .786.03 1.183l3.382 42.676a10.97 10.97 0 0 0 4 7.636 10.982 10.982 0 0 1 2.555 14.008zm-91.08-28.048l3.49 1.541-9.048-7.163a10.785 10.785 0 0 0 5.558 5.622z" clip-rule="evenodd" fill="#b5d038" fill-rule="evenodd"/><path d="M185.907 142.78l-4.068-11.776a10.796 10.796 0 0 1 3.291-11.82l.09-.074a10.8 10.8 0 0 0 3.693-10.315l-1.134-5.952a10.786 10.786 0 0 0-3.813-6.371l-8.39-6.79a10.797 10.797 0 0 1-3.983-9.062l2.412-38.742a10.795 10.795 0 0 0-4.835-9.685l-30.776-20.26 9.751-8.43A10.906 10.906 0 0 1 155.3.837c2.992 0 5.97 1.22 8.13 3.612l35.24 39.007a10.982 10.982 0 0 1 2.288 10.77l-12.255 37.52a10.979 10.979 0 0 0 1.61 9.939l6.527 8.83a10.987 10.987 0 0 1 2.128 7.246l-.403 6.15a10.971 10.971 0 0 1-6.266 9.208l-.107.05a10.972 10.972 0 0 0-6.285 9.611zM82.963 187.49l6.042 4.784a10.85 10.85 0 0 1-.86-3.741l-.099-2.119a10.786 10.786 0 0 0-8.939-10.125l-.07.343a10.979 10.979 0 0 0 3.926 10.858zm79.875 48.638a10.862 10.862 0 0 0 8.34 3.872c3.715 0 7.406-1.87 9.491-5.468l4.974-8.588a10.787 10.787 0 0 1-3.059-1.506l-8.075-5.688a10.773 10.773 0 0 0-6.2-1.965 10.74 10.74 0 0 0-4.456.967l-7.58 3.447a10.738 10.738 0 0 1-8.8.05l-49.42-21.812 31.035 24.571a10.95 10.95 0 0 0 8.677 2.203l8.341-1.456a10.955 10.955 0 0 1 10.234 3.708zM49.142 96.85a10.965 10.965 0 0 0-8.46 7.426l20.944-9.906.41-.19c2.181-1.009 3.976-1.839 5.017-3.486l-17.91 6.156z" clip-rule="evenodd" fill="#418dc0" fill-rule="evenodd"/><path d="M185.643 225.944a10.787 10.787 0 0 1-3.059-1.506l-8.075-5.688a10.766 10.766 0 0 0-10.657-.998l-7.579 3.447a10.754 10.754 0 0 1-8.8.05l-49.42-21.812-9.048-7.163a10.821 10.821 0 0 1-.86-3.741l-.099-2.119a10.786 10.786 0 0 0-8.939-10.125l.37-1.768c1.183-5.651-2.21-11.255-7.763-12.814l-13.84-3.889a10.973 10.973 0 0 1-7.92-11.867l.06-.482c.571-4.791-12.037-19.173-11.499-23.941l1.708-15.119c.082-.735.237-1.448.458-2.133l20.944-9.906c2.367-1.1 4.323-1.927 5.427-3.675l8.124-2.792a10.961 10.961 0 0 0 8.043-6.334l14.828-33.374a10.96 10.96 0 0 1 2.85-3.846l37.497-32.416 30.775 20.26a10.793 10.793 0 0 1 4.836 9.685l-2.412 38.742a10.794 10.794 0 0 0 3.982 9.062l8.391 6.79a10.785 10.785 0 0 1 3.813 6.371l1.134 5.952a10.8 10.8 0 0 1-3.694 10.315l-.089.074a10.796 10.796 0 0 0-3.29 11.82l4.067 11.776c-.012.391 0 .786.03 1.183l3.382 42.676a10.97 10.97 0 0 0 4 7.636 10.982 10.982 0 0 1 2.555 14.008z" fill="#3d8543"/><path d="M57.148 109.632l6.136 10.542 4.174-10.542h4.77l-8.464 21.571h-4.77l2.28-5.712-9.05-15.859z" fill="#fffffe"/><path d="M76.785 115.488h-4.309v15.715h4.31v-6.163h1.537c.74 3.544 3.878 6.626 8.156 6.626a8.279 8.279 0 0 0 8.308-8.32 8.28 8.28 0 0 0-8.308-8.321c-4.278 0-7.417 3.082-8.156 6.626h-1.538zm13.541 7.858c0 2.959-1.663 4.623-3.847 4.623-2.186 0-3.847-1.664-3.847-4.623 0-2.959 1.661-4.623 3.847-4.623 2.184 0 3.847 1.664 3.847 4.623z" clip-rule="evenodd" fill="#fffffe" fill-rule="evenodd"/><path d="M96.267 115.488h14.773v3.698h-5.232v12.017H101.5v-12.017h-5.233zm17.176 0h4.308v5.855h6.616v-5.855h4.308v15.715h-4.308v-6.163h-6.616v6.163h-4.309v-15.715z" fill="#fffffe"/><path d="M136.926 115.488h-4.309v15.715h7.232c3.847 0 6.308-2.464 6.308-5.392 0-2.928-2.46-5.394-6.308-5.394h-2.923zm10.771 15.715h4.31v-15.715h-4.31zm-8.156-3.543c1.385 0 2.155-.771 2.155-1.849 0-1.078-.77-1.849-2.155-1.849h-2.615v3.698zm24.1-16.949c-1.385 0-2-.586-2-1.541h-2.924c0 2.465 1.692 4.16 4.924 4.16 3.231 0 4.924-1.695 4.924-4.16h-2.923c0 .955-.615 1.541-2 1.541zm-3.385 4.776h-4.308v15.716h4.615l6.31-9.552h.307l-.154 2.773v6.779h4.31v-15.716h-4.618l-6.309 9.553h-.307l.154-2.772zm-49.63 21.796h-10.003c-5.264 0-8.464 3.236-8.464 7.242 0 3.359 2.31 5.732 4.772 6.626l-4.772 7.703h5.08l4.153-7.087h4.617v7.087h4.616zm-4.617 10.17h-5.386c-2.463 0-3.692-1.201-3.692-2.928 0-1.602 1.23-2.927 3.692-2.927h5.386z" clip-rule="evenodd" fill="#fffffe" fill-rule="evenodd"/><path d="M114.875 143.139h5.846l3.694 8.474h.46l3.694-8.474h5.847v15.715h-4.308v-7.857l.154-2.773h-.154l-3.385 7.704h-4.155l-3.386-7.704h-.153l.153 2.773v7.857h-4.307z" fill="#fffffe"/><path d="M148.098 143.91c-.83-.617-2-1.234-3.724-1.234-4 0-7.232 3.236-7.232 8.321 0 5.084 3.232 8.32 7.232 8.32 1.723 0 2.893-.616 3.724-1.232.462-.37.862-.77 1.2-1.233h.154v2.002h4.308v-15.715h-4.308v2.003h-.154a6.414 6.414 0 0 0-1.2-1.232zm1.354 7.087c0 2.959-1.662 4.623-4 4.623-2.186 0-3.848-1.664-3.848-4.623 0-2.959 1.662-4.623 3.847-4.623 2.34 0 4.001 1.664 4.001 4.623z" clip-rule="evenodd" fill="#fffffe" fill-rule="evenodd"/><path d="M160.61 143.139h8.31l4.154 15.715h-4.308l-3.23-12.017h-1.54l-3.232 12.017h-4.308z" fill="#fffffe"/></svg>