<svg xmlns="http://www.w3.org/2000/svg" width="234" height="234" fill="none"><mask id="a" maskUnits="userSpaceOnUse" x="6" y="32" width="70" height="79"><path d="M68.552 73.453c-1.823-1.615-10.817-19.32-10.817-19.32s-.442 25.974-.623 28.987c-.182 3.013 3.502 9.878 3.502 9.878l-5.06 6.197-9.137 11.051s-7.826 2.733-10.88-5.073c-3.055-7.807-2.032-11.395-3.69-19.148-1.658-7.752-3.732-12.374-7.026-18.92-3.295-6.548-2.554-8.512.128-15.29-1.7 1.785-17.06 10.329-17.06 10.307-2.388-.188.395-3.384 1.695-6.289 1.301-2.905-1.705-3.072 1.392-5.945 0 0 10.31-9.861 13.29-13.078a2.18 2.18 0 0 1 .699-.506 49.042 49.042 0 0 1 5.992-2.383l-1.6 2.442a7.795 7.795 0 0 0-.687 7.645c1.205 2.534 4.004 4.707 10.396 3.287 12.794-2.851 11.526-14.822 11.526-14.822s9.142 3.175 12.005 5.084c4.964 3.31 12.928 33.308 12.928 33.308s-5.118 4.18-6.973 2.588z" clip-rule="evenodd" fill="#fff" fill-rule="evenodd"/></mask><mask id="c" maskUnits="userSpaceOnUse" x="139" y="208" width="12" height="22"><path d="M139.026 208.417h11.902v21.34h-11.902z" clip-rule="evenodd" fill="#fff" fill-rule="evenodd"/></mask><mask id="d" maskUnits="userSpaceOnUse" x="139" y="208" width="12" height="22"><path d="M139.026 208.417h11.902v21.34h-11.902z" clip-rule="evenodd" fill="#fff" fill-rule="evenodd"/></mask><path d="M80.45 102.556c-.839-.291-1.41-1.03-1.455-1.876-.183-4.395-.405-17.597 3.755-17.586 3.81 0 4.608 12.838 4.77 18.867.021 1.163-.954 2.124-2.179 2.145a2.36 2.36 0 0 1-.784-.121l-4.109-1.429z" clip-rule="evenodd" stroke="#32478c" stroke-width="2"/><path d="M59.644 111.747s25.997-6.343 26.693-7.981c.695-1.639-.102-20.71-3.908-20.672-3.805.037-26.457 7.774-26.457 7.774z" clip-rule="evenodd" fill="#546ddc" fill-rule="evenodd"/><path d="M85.607 87.755l-10.598 8.71-15.897-1.783-2.364-.389-.776-4.37s22.79-7.742 26.625-7.784c1.368-.016 2.353 2.417 3.01 5.617z" clip-rule="evenodd" fill="#3156a9" fill-rule="evenodd"/><path d="M53.694 110.201c-.84-.289-1.418-1.028-1.463-1.877-.189-4.394-.41-17.6 3.748-17.59 3.814 0 4.607 12.837 4.773 18.865.023 1.164-.95 2.126-2.176 2.148a2.353 2.353 0 0 1-.79-.124z" clip-rule="evenodd" fill="#32478c" fill-rule="evenodd"/><path d="M58.771 110.792a.969.969 0 0 1-.36-.074l-3.6-1.42c-.393-.153-.66-.55-.675-1.003-.316-8.448.373-14.668 1.796-16.283a.748.748 0 0 1 .582-.322c.97 0 2.946 3.759 3.28 17.951.016.301-.088.595-.286.808a.991.991 0 0 1-.737.343z" clip-rule="evenodd" fill="#546ddc" fill-rule="evenodd"/><path d="M82.834 82.143a1.48 1.48 0 0 1 .877.212c.258.157.486.358.673.593.37.457.68.957.926 1.488.254.515.475 1.046.661 1.588.19.53.345 1.06.5 1.631l.092.323-.312.292c-.834.778-1.69 1.525-2.534 2.293l-2.583 2.245c-.867.747-1.749 1.462-2.62 2.198-.872.736-1.76 1.445-2.654 2.16l-.317.254-.398-.042a151.622 151.622 0 0 1-4.09-.53 252.618 252.618 0 0 1-4.084-.608 136.588 136.588 0 0 1-4.074-.715c-1.356-.26-2.69-.53-4.057-.853v-.106l16.412 1.79h-.075l10.606-8.648v.075a21.355 21.355 0 0 0-.915-3.189 6.71 6.71 0 0 0-.742-1.477 1.74 1.74 0 0 0-1.308-.868z" clip-rule="evenodd" fill="#32478c" fill-rule="evenodd"/><path d="M65.532 87.87s.525-4.315 3.93-5.534c3.084-1.1 4.674 2.77 4.674 2.77" stroke="#32478c" stroke-width="2"/><path d="M65.532 87.87c.528 0 .956.213.956.477s-.428.478-.956.478-.956-.214-.956-.478.428-.478.956-.478zm8.604-2.866c.528 0 .956.214.956.478 0 .263-.428.477-.956.477-.529 0-.956-.214-.956-.477 0-.264.428-.478.956-.478z" clip-rule="evenodd" fill="#32478c" fill-rule="evenodd"/><path d="M128.533 112.847c0-.646.026-1.287.047-1.933-.329-.252-.943-.641-1.042-1.025-.099-.383.1-.12-.047-.62a19.553 19.553 0 0 0-1.04-2.322 5.795 5.795 0 0 0-.282-.483c-.105-.158-.032-.047 0 .037.03.083 0 .205 0 .188-.709-.577-1.407-1.25-2.084-1.875a10.49 10.49 0 0 0-2.702-1.55c-.734-.283-.813 0-1.042.463a.868.868 0 0 0-.66-.106.563.563 0 0 0-.38.599c.04.232.571.525.37.558-.205.031-.387.068-.49.267-.105.2-.178.268-.032.563.146.293 0 .551.276.819-.162.121.37.21.23.525-.14.316.11.751.441 1.14.334.389.834 1.172 1.193 1.645.36.472.385.573.85 1.151.462.577 1.66 1.087 2.337 1.623.677.536 1.14 1.423 1.682 2.101.646-.047 1.297-.11 1.948-.162.156-.626.338-1.245.52-1.866-.03.069-.062.168-.093.263z" clip-rule="evenodd" fill="#e1ab95" fill-rule="evenodd"/><path d="M53.86 46.447s2.49-13.396 4.915-15.282c3-.828 4.474-2.383 5.665-3.324a326.6 326.6 0 0 1 3.004-2.33l-.852-2.548s-3.278 2.714-3.513 2.827c-.235.112-.17-.492-1.19-1.245-1.022-.754.31-2.47.256-2.966a5.647 5.647 0 0 0 1.53-1.111l-.623-2.41-1.639 1.763s.546-2.34 1.437-2.458c.546-.075 1.13-3.992 1.13-3.992l-.639.225s-3.184.967-3.556 1.662c-.37.694-2.463 6.791-3.512 8.506-1.05 1.716-3.873 5.964-4.032 6.792-.158.828-6.784 13.962-6.784 13.962l1.737 6.102 4.534-1.16 2.13-3.013z" clip-rule="evenodd" fill="#f2c7b6" fill-rule="evenodd"/><path d="M63.087 25.659c-.229.11-.168-.488-1.188-1.236-1.02-.747 1.783-4.045 1.783-4.045a12.145 12.145 0 0 0-.622-2.392c-.3-.482-1.352 1.305-1.352 1.305s.136-1.421 1.15-1.994c.153-.08.28-.53.431-1.06a6.38 6.38 0 0 0-1.532.843c-.25.44-1.156 1.85-1.156 2.174a20.24 20.24 0 0 1-.627 3.24c-.109.169-1.357 3.907-1.44 4.071-.08.165-1.499 3.881-1.668 4.178-.087.186-.545 3.823-.894 6.506.834-2.869 1.832-5.504 2.82-6.262 2.992-.822 4.464-2.365 5.653-3.298 1.19-.933 3-2.311 3-2.311l-.85-2.53s-3.284 2.7-3.508 2.81zm-2.46-9.595c.454-.602 2.655-1.371 3.742-1.717.123-.557.207-.976.207-.976l-.655.235s-3.266 1.009-3.647 1.733c-.18.346-.762 1.968-1.434 3.763.7-1.265 1.48-2.637 1.787-3.038z" clip-rule="evenodd" fill="#e2acac" fill-rule="evenodd"/><path d="M108.565 14.687c-3.97.08-7.85-3.8-7.85-3.8s5.31 2.456 10.97.457c7.164-2.527 8.864-2.204 10.973-.99-1.602.355-10.127 4.23-14.093 4.333zm28.187 2.408c-2.277-9.396-12.97-7.246-12.97-7.246-3.206-3.225-9.584-1.193-13.955-.07C104.34 11.2 94.64 5.905 88.984 2.487c14.093 3.343 17.131 2.585 18.987.989-3.205.913-3.29.758-15.275-2.053C80.712-1.39 70.838-.616 67.46 9.113c-11.477 6.536.194 25.94 8.466 33.083 30.05 26.6 36.265 1.575 36.265 1.575 12.745 1.075 14.347-4.408 14.94-8.6 5.57-2.57 11.904-8.66 9.621-18.076z" clip-rule="evenodd" fill="#43436c" fill-rule="evenodd"/><path d="M105.047 35.234c13.388 4.19 21.667-.07 21.667-.07s-14.26 3.713-20.886-7.811c12.081 1.607 19.445-1.774 20.062-2.068-.41.187-3.647 2.095-13.054 1.34-17.015-1.362-23.502-14.852-24.268-15.72-3.993-4.522-7.98-1.345-9.853.616C75.36 14.982 68.4 20.297 68.4 20.297l1.765 7.72 6.09 13.26 21.3 9.3a66.8 66.8 0 0 0 7.587-.16 21.725 21.725 0 0 0 6.85-6.68c12.813 1.21 14.143-5.728 14.212-6.103-5.87 10.785-34.546-6.595-21.157-2.4z" clip-rule="evenodd" fill="#2f2e52" fill-rule="evenodd"/><path d="M84.651 29.608h3.496c1.914 0 3.574.43 3.121 2.04-.078.266-.135.58-.208.8-.936 2.731-1.763 1.773-1.763 1.773l-4.61-1.11z" clip-rule="evenodd" fill="#8950a1" fill-rule="evenodd"/><path d="M68.117 20.057s-2.21 6.205 1.38 13.975c10.33 2.631 5.352-10.355 5.352-10.355z" clip-rule="evenodd" fill="#2f2e52" fill-rule="evenodd"/><path d="M72.966 33.971s1.808-.402 2.455-1.016c.994-.937 10.346-9.077 10.346-9.077l2.103 2.577.053 1.726c.076 2.379 1.974 4.29 4.337 4.366l2.907 4.695-2.455 8.95-9.836 5.383-14.647-.947-2.697-9.845z" clip-rule="evenodd" fill="#e1ab95" fill-rule="evenodd"/><path d="M76.062 102.196s-1.345 41.664 21.625 66.42c2.766 2.977 3.752 3.985 7.342 10.706 3.591 6.721 11.255 18.216 13.34 24.798 2.084 6.583 10.257 4.838 10.257 4.838l-.428-9.83s-6.823-16.92-7.905-20.803a39.436 39.436 0 0 0-7.573-13.826 29.233 29.233 0 0 1-4.888-7.884c-1.447-3.537-5.97-31.525-6.125-36.044-.156-4.518-25.645-18.375-25.645-18.375z" clip-rule="evenodd" fill="#2f2e52" fill-rule="evenodd"/><path d="M109.991 73.453c-1.823-1.615-10.817-19.32-10.817-19.32s-.442 25.974-.623 28.987c-.182 3.013 3.502 9.878 3.502 9.878l-5.06 6.197-9.137 11.051s-7.826 2.733-10.88-5.073c-3.055-7.807-2.032-11.395-3.69-19.148-1.658-7.752-3.732-12.374-7.026-18.92-3.295-6.548-2.554-8.512.128-15.29-1.7 1.785-17.06 10.329-17.06 10.307-2.388-.188.395-3.384 1.695-6.289 1.301-2.905-1.705-3.072 1.392-5.945 0 0 10.31-9.861 13.29-13.078a2.18 2.18 0 0 1 .7-.506 49.042 49.042 0 0 1 5.991-2.383l-1.6 2.442a7.795 7.795 0 0 0-.687 7.645c1.205 2.534 4.004 4.707 10.396 3.287C93.3 44.444 92.031 32.473 92.031 32.473s9.142 3.175 12.005 5.084c4.964 3.31 12.928 33.308 12.928 33.308s-5.118 4.18-6.973 2.588z" clip-rule="evenodd" fill="#0061d9" fill-rule="evenodd"/><g mask="url(#a)" transform="translate(41.44)"><mask height="79" width="70" y="32" x="3" maskUnits="userSpaceOnUse" id="b"><path d="M65.675 73.488c-1.827-1.613-10.84-19.315-10.84-19.315s-.444 25.969-.625 28.981c-.182 3.012 3.51 9.876 3.51 9.876l-5.07 6.197-9.158 11.048s-7.843 2.732-10.904-5.073c-3.062-7.804-2.036-11.392-3.697-19.143-1.662-7.751-3.74-12.372-7.043-18.918-3.3-6.546-2.558-8.51.13-15.287C20.272 53.64 4.88 62.182 4.88 62.16c-2.393-.188.396-3.383 1.7-6.288 1.303-2.904-1.71-3.071 1.394-5.943 0 0 10.333-9.86 13.32-13.077.197-.213.435-.385.699-.505a49.256 49.256 0 0 1 6.005-2.383l-1.603 2.442a7.777 7.777 0 0 0-.689 7.644c1.207 2.533 4.013 4.706 10.419 3.286 12.822-2.85 11.55-14.819 11.55-14.819s9.163 3.174 12.032 5.083c4.974 3.308 12.956 33.301 12.956 33.301s-5.129 4.18-6.988 2.587z" clip-rule="evenodd" fill="#fff" fill-rule="evenodd"/></mask><g mask="url(#b)"><path d="M60.562 86.844l1.437 1.017-1.004 1.441-1.005 1.447-1.004 1.442 1.421.995 1-1.442 1.436 1.006.992-1.43-1.417-.998 1.004-1.446 1.436 1.012-.997 1.434.947.695.456.321.999-1.433 1.434 1.01.003-.004 1.437 1.011-.988 1.437-1.432-1.012-.007.01.004.003-.996 1.432 2.885 2.03 1.41 1.022-1.004 1.442-1.432-1.012-1.004 1.447-1.416-.996 1.004-1.446-1.437-1.006-1 1.442 1.41.995-1.003 1.447-1.432-1.011-1.004 1.441-1.438-1.011 1.005-1.442 1.004-1.447.994-1.452-1.41-.99-1.005 1.442-1.432-1.011-.999 1.447-1.432-1.012-1.004 1.442-1.431-1.007v.001l-.05-.034-.002.004.015.01-1 1.439 1.426 1.002 2.874 2.022-1.004 1.447-1.437-1.011-1.005 1.447-1.425-1.007 1.003-1.44-1.432-1.012-1.004 1.447 1.414 1.017-.992 1.431-1.437-1.012-1.005 1.442-1.437-1.011 1.005-1.447 1.004-1.442 1.005-1.43-1.432-1.007-1.005 1.442-1.432-1.011-1.006 1.444-1.43-1.008-1.004 1.441-1.432-1.011v-.001l-.003-.003-.003.004-.002-.002-1.001 1.436 1.447 1.019 1.432 1.011 1.437 1.011-1.031 1.442-1.437-1.012-1.005 1.463-1.432-1.011-1.004 1.442-1.437-1.011-1.005 1.446-1.431-1.011 2.008-2.894 1-1.441-1.422-1.004-.988 1.418-.008-.006-.019.027-1.432-1.01-.574.822-.426.615-.002-.001-.002.005-.392-.283-1.027-.722-.99 1.43-.016-.011-.022.032-1.432-1.006-.99 1.423 1.428 1.009 1.437 1.011 1.432 1.011-1.004 1.447-1.432-1.011-1.005 1.441-1.437-1.005-1.02 1.43-1.432-1.011-1.004 1.447-1.438-1.011 2.01-2.894.992-1.425-1.41-.996-1.004 1.442-1.431-1.011.006-.011v-.001l-.012.017-.012-.008-.996 1.435-.587-.413-.728-.492-.131.189-.118-.083-.874 1.255-1.437-1.011 1.01-1.474-1.01 1.441-1.438-1.012 1.016-1.446 1.431 1.011 1-1.414-1.432-1.012-2.875-2.022 1.005-1.447 1.437 1.011 1.005-1.447 1.423 1.002-.996 1.43 1.432 1.01 1.004-1.446-1.418-.997.99-1.43 1.438 1.012 1.005-1.447 1.437 1.011-1.005 1.447-1.004 1.442-1.003 1.443 1.43 1.01 1.005-1.442 1.431.974.996-1.437-1.422-1.002 1.005-1.446 1.436 1.012-1.002 1.44 1.418.997 1.01-1.43.022.015.015-.021 1.425 1.002.988-1.42.014.009v-.001l-1.46-1.032-1.442-1.01-1.437-1.012 1.004-1.447 1.437 1.011 1.005-1.447 1.432 1.011 1.004-1.441 1.437 1.011 1.005-1.447 1.437 1.011-1.005 1.447-.983 1.426-.983 1.463 1.432 1.011.983-1.436.014.01.008-.01 1.416.997.995-1.432 1.064.75.371.26 1.026-1.452 1.437 1 1-1.44 1.431 1.01.008-.01-1.44-1.017-2.874-2.022-1.432-1.012 1.005-1.447 1.431 1.012 1.037-1.42 1.4 1.002-1 1.434 1.438 1.012.999-1.442-1.427-1.008 1-1.434 1.431 1.011 1.01-1.447 1.432 1.012-2.009 2.893-.992 1.45 1.42.998 1.004-1.442 1.43 1.007.002-.001.005-.005.006.005-.004.005.011.008.18-.259-.296-.208.82-1.187-1.134-.798 1.005-1.446 1.435 1.012-.823 1.185 1.134.793-.197.285.29.206.011-.014.008.005.995-1.47.03.022.007-.011 1.423 1.005.992-1.428.008.006.009-.012-1.449-1.023-2.874-2.022 1.004-1.442 1.438 1.011.983-1.441 1.437 1.01.999-1.446 1.437 1.011zm-32.473 15.933l-1.005 1.441 1.448.995.989-1.425zm-6.322-.153l1.436 1.011-1.005 1.446-1.436-1.012zm18.52-2.037l-1 1.436 1.437 1.006 1-1.43-1.438-1.012zm-6.32-.137l1.435 1.012-1.004 1.446-1.436-1.012 1.004-1.446zm12.207-2.172l1.436 1.012-1.004 1.445-1.437-1.011zm-10.278-.563l-.504.699-.41.57.031.011v-.001l-.005-.004zm22.483-1.605l1.436 1.012-1.005 1.446-1.436-1.012 1.005-1.445zm-7.75-1.175l-.013.018h.001l-.387.56-.421.61.403-.576.41-.59-.005-.003.013-.018h-.001zm2.416-.399l-.973 1.399v.005zM39.01 93.219l1.437 1.01-1.005 1.446-1.436-1.011 1.005-1.445zm-6.321-.146l-1 1.463 1.433.99 1.004-1.442zm35.008-1.158l-.994 1.432.997-1.43zm-9.732-19.81l1.438 1.012-2.01 2.894-1.004 1.442 1.425 1.005 1-1.436.008.005.003-.005 1.43 1.004.997-1.434.004.003.005-.008-1.431-1.008 1.004-1.446 1.437 1.012-1.005 1.445 1.137.802.141-.204.292.204.857-1.241 1.437 1.017 1.437 1.01-.983 1.448-1.437-1.012-1.005 1.442-1.431-1.006-.017.023 2.864 2.016 1.432 1.016 1.437 1.012-1.004 1.447-1.437-1.012L63.98 85l-1.432-1.011-1.004 1.442-1.437-1.012-1.005 1.447-1.431-1.011.998-1.474 1.005-1.441 1-1.447-1.408-.994-.992 1.43-.025-.019-.012.018-1.432-1.01h-.001l.01.007-1.005 1.445-1.436-1.011.001-.003-.003-.002-.001.003-.003-.002-.997 1.44-1.434-1.01-1.003 1.44-.004-.003-.008.01 1.428 1.01 1.437 1.016 1.432 1.011-1.004 1.447-1.432-1.011-1.004 1.447-1.438-1.011-1.004 1.441-1.432-1.011-1.004 1.447-1.438-1.011 1.026-1.453 1.005-1.447 1.004-1.441-1.436-1.011-.123.177-.877 1.27-1.437-1.012-1 1.442-.01-.008-.01.014-1.42-1-.996 1.43-.021-.016-.021.032-1.432-1.006-.987 1.416 1.414.999 1.448 1.032 1.437 1.012-1.004 1.447-1.437-1.012-1.005 1.442-1.432-1.006-1.015 1.426-1.437-1.012-1.004 1.447-1.438-1.011 1.005-1.415 1.004-1.447 1.005-1.441-1.427-1.028-1.004 1.442-1.432-1.006-1.005 1.442-.004.005-1.433-1.01-.999 1.44-.014-.01-.007.01-1.437-1.01-1 1.446-1.437-1.011-.002.002 1.434 1.01 1.437 1.032 1.432 1.011 1.437 1.017-1.004 1.441-1.437-1.011-1.005 1.447-1.431-1.011-1.005 1.447-1.437-1.012-1.005 1.447-1.431-1.038 1.004-1.452 1.004-1.447 1-1.442L22.655 86l-1.01 1.441-1.431-1.006-1.005 1.442-.015-.011-.01.012-1.417-.998-.989 1.427-1.461-1.015-.002.004-1.432-1.011 1.004-1.431 1.421.995 1.005-1.447 1.442.99.002-.003-1.444-.987-1.4-1.011-2.874-2.023.983-1.457 1.437 1.01 1.004-1.446 1.448 1.027 1.005-1.447 1.42 1.022 1.005-1.441 1.437 1.011-1.004 1.442-.978 1.436-1.004 1.447 1.432 1.006.999-1.442.003.002.002-.002 1.414.998.99-1.425.017.013.015-.022 1.212.856.173-.251.215.15.831-1.19 1.434 1.008.668-.962.33-.477 1.431 1.006.002-.002-1.428-1.004-1.438-1.005-1.431-1.012-1.438-1.011 1.005-1.447 1.437 1.011 1.004-1.447 1.422 1.026-.994 1.427 1.437 1.011 1.004-1.447-1.427-.999.995-1.432 1.437 1.017 1.004-1.447 1.432 1.011-1.004 1.447-1.005 1.415-1.004 1.447 1.43 1.006 1.011-1.442 1.432.99-.004.006.01.007.992-1.429.008.005.004-.004 1.432 1.006.999-1.442.016.011.154.109 1.28.9v-.001l-.01-.007 1.005-1.446-1.44-1.018-1.422-.984-1.437-1.012 1.004-1.447 1.438 1.012 1.004-1.447 1.437.968 1-1.442 1.436 1.012.983-1.431 1.438 1.011-1.005 1.447-.967 1.447-1.004 1.442.003.002.002-.002 1.432 1.01.978-1.435.013.009.013-.02 1.42.998-.014.02.001.001.013-.018v-.002l.991-1.425.015.01.01-.014 1.429 1.003 1.008-1.439 1.437 1.006.996-1.431.009-.01 1.431 1.01.01-.012-1.42-.999-1.432-1.011-2.874-2.022 1.004-1.447 1.437 1.01 1.005-1.44 1.405 1.01 1.004-1.441 1.438 1.011 1.01-1.452zm-.876 16.627l-1.004 1.447 1.432 1.006 1.004-1.442-1.432-1.01zm-31.591-.71l-1.005 1.442 1.438 1.01.999-1.446zm-6.327-.142l1.436 1.012-1.005 1.445-1.436-1.011zm18.55-2.031l-1.004 1.441 1.432 1.012 1.005-1.442-1.432-1.011zm-6.338-.138l1.436 1.011-1.004 1.446-1.436-1.012zm-15.064.138l-1.004 1.441.002.002zm33.584-2.173l-.993 1.442 1.431 1.01 1-1.44zm-6.315-.133l1.436 1.012L44.019 86l-1.436-1.011zM23.634 84.56l-.979 1.435.99-1.427zm1.62.734l-.185.265h.001zm36.873-3.79l-1.004 1.447 1.426 1.006 1.016-1.442zm-6.332-.138l1.436 1.012-1.004 1.446-1.436-1.012zm-31.576-.714l1.437 1.012-1.005 1.445-1.436-1.011 1.005-1.446zm-6.324-.149l-.999 1.447 1.432 1.006 1.004-1.441zm25.272.587l-1 1.436.354-.506zm2.264-.167l-.109.154-.706 1.012.009-.004.23-.331zm-9.01-2.444l1.437 1.012-1.005 1.446-1.436-1.012 1.005-1.446zm11.62 1.733l-.375.54.232-.33.146-.209-.003-.002zm13.791-1.376l-.143.206v.004l.145-.209h-.002zm-13.205-2.53l1.436 1.012-1.005 1.446-1.436-1.012zm11.625 1.736l-.472.681.115-.162.36-.518zm-17.94-1.88l-1.005 1.442 1.432 1.011 1.004-1.441-1.432-1.011zm13.014-18.965l1.437 1.016-1.004 1.442-1.005 1.447-1.004 1.441.007.005.004-.005 1.428 1 .997-1.43.005.003.006-.009 1.429 1.005.997-1.435 1.433 1.01 1.019-1.43 1.432 1.012-.891 1.285.896-1.29 1.437 1.005-1.026 1.447-1.416-.996-.996 1.432 1.43 1.006 1.431 1.01 1.437 1.012-1.02 1.447-1.437-1.011-1.005 1.447-1.431-1.011-1.005 1.447-1.437-1.012-1.005 1.447-1.431-1.016 1.004-1.442 1.004-1.447 1.005-1.442-1.434-1.008-1.002 1.439-.004-.003-.002.003-1.418-1.001-1 1.44-1.436-1.012.007-.011-.002-.002-.008.011-.008-.006-.991 1.43h-.001l-.015.022-1.43-1.009-1.004 1.445-.002-.001v.001l1.431.995 2.875 2.022-1.005 1.448-1.437-1.012-1.004 1.447-1.433-1.008 1-1.423-1.432-1.028-1.004 1.447 1.426 1.008-.994 1.44-1.437-1.011-1.004 1.441-1.437-1.011 1.004-1.447 1.005-1.442 1.004-1.447-1.433-1.002-.993 1.438-.007-.005-.003.005-1.438-.973-.995 1.436 1.418 1-1.004 1.445-1.436-1.011 1-1.441-1.414-.994-1.01 1.41-.012-.01-.014.02-1.424-1.002-.999 1.438-.018-.014-.003.004 1.44 1.016 2.874 2.022-1.005 1.447-1.437-1.01-1.004 1.446-1.432-1.011-1.004 1.441-1.438-1.01-1.004 1.446-1.437-1.011 2.009-2.894 1.004-1.442-1.432-1.01-1.004 1.446-1.421-1.006-.488.7-.517.743-1.432-1.007-1.004 1.436-.013-.01-.003.005-1.437-1.006-.002.002-.178.257-.82 1.182h-.001l-.002.003 1.44 1.014 1.443 1.011 1.432 1.011-1.004 1.448-1.432-1.012-1.01 1.442-1.432-1.006-1.004 1.442L20.887 76l-1.01 1.447-1.432-1.011 1.999-2.878 1-1.47-1.422-1.004-1.005 1.441-1.435-1.009-.002.004-.004-.003-.002.003h-.005l.004-.005-.002-.002-1 1.437-1.43-1.004-.008.01-.002-.001-.997 1.447-1.437-1.011 1.002-1.444-1.002 1.439-1.432-1.012 1.015-1.447 1.425 1.006.996-1.434.01.007.002-.004-1.44-1.016-2.874-2.023 1.005-1.446 1.437 1.01 1.004-1.42 1.425 1.007-.992 1.425 1.432 1.011 1.004-1.447-1.425-1 .993-1.425 1.437 1.01 1.004-1.446 1.437 1.011-1.004 1.447-1.004 1.441-1.005 1.404 1.432 1.012 1.004-1.447 1.432 1.01 1-1.434-1.419-.998 1.005-1.446 1.436 1.012-1 1.438 1.415 1.015 1.004-1.442.016.012.016-.023 1.431 1.007.994-1.43.008.005.009-.012 1.41 1.011.009-.012-1.42-.999-1.453-.99-1.431-1.01-1.438-1.012 1.005-1.447 1.437 1.011.983-1.468 1.432 1.011 1.026-1.436 1.437 1.011 1.004-1.447 1.432 1.011-2.009 2.894-.999 1.442 1.421 1.003 1-1.434.007.006.008-.01 1.427 1.007 1.003-1.443.006.005 1.422 1 .999-1.441.024.016.008-.011 1.432 1.006 1.004-1.442 1.432 1.011.014-.02-1.446-1.018-1.432-1.01-1.437-1.012-1.432-1.011 1.005-1.447 1.421 1.032 1.004-1.441 1.438 1.006 1.004-1.442 1.432 1.011 1.004-1.447 1.438 1.012-.994 1.474-1.005 1.447-.998 1.433 1.42.998 1.005-1.442 1.432 1.011-.004.007.01-.012.003.002 1-1.44.612.431.82.555 1.005-1.441.014.01.007-.01 1.432 1.01 1.009-1.44-1.426-1.006-1.448-1.017-1.437-1.011 1.005-1.442 1.42 1.017 1.005-1.447 1.432 1.011 1.005-1.447 1.437 1.011 1.004-1.447zm-.812 16.793l-1 1.441 1.433 1.011L55.95 75l-1.437-1.011zm-31.634-.877l-1 1.441 1.433 1.011 1.004-1.441zm-6.324-.138l1.436 1.012-1.004 1.445-1.436-1.01zm18.532-2.035l-1.005 1.447 1.438 1.005 1.026-1.447zm-6.324-.137l1.436 1.012-1.004 1.445-1.436-1.011zM59.5 66.598l-1.005 1.441 1.438 1.011 1.004-1.446zm-6.322-.141l1.436 1.012-1.005 1.445-1.436-1.011zm-12.623-.284v-.005l-1 1.441zm6.67-.378l-.354.508-.002.004-.005.006 1.418.997-.136-.097-1.278-.9.006-.008-.002-.002.352-.508zm-9.112.803l-.354.507.047-.065zm-4.309-3.033l1.436 1.011-1.004 1.446L32.8 65.01zm-6.34-.14l-.982 1.42 1.437 1.01 1.004-1.44-1.458-.99zM54.5 64.552l-.31.434.005.003zm-2.561-1.15l.823.58zM46.012 61.4l1.437 1.012-1.005 1.445-1.436-1.011zm-6.319-.149l-1.01 1.442 1.443 1.011 1-1.442-1.433-1.01zm13.063-18.794l1.432 1.011-2.009 2.894-.999 1.442 1.425 1.006 1.006-1.41.008.006.024-.032 1.407 1.003 1-1.439.005.004.003-.004 1.432 1.011 1-1.447 1.436 1.017 1.437 1.011-1.01 1.468-1.431-1.01-1.005 1.44-1.437-1.021-.005.007 1.442 1.015 1.427.984 2.874 2.023-1.004 1.447-1.437-1.012-1.005 1.447-1.432-1.011-1.004 1.441-1.437-1.01-1.005 1.446-1.437-1.011 1.005-1.447 1.004-1.441 1.002-1.445-1.424-1.003-1 1.447-1.435-1.01-1.001 1.442-1.436-1.012v-.002l-.002-.001v.002l-.005-.004-.998 1.44-.017-.011-.015.022-1.423-1.001-.998 1.435 1.46 1.008 1.436 1.01 1.432 1.012-1.004 1.447L47.6 56.05l-1.005 1.447-1.432-1.011-1.004 1.441-1.437-1.011-1.005 1.447-1.432-1.011.967-1.447 1.005-1.447 1.004-1.442-.004-.002-.001.002-1.432-1.011-1.004 1.447-1.42-1.006-1.001 1.442-.01-.007v.001l-1.432-1.006-1 1.442-1.436-1.011.003-.006-.002-.002-.001.002-.013-.009-.006.01.01.007-.995 1.43 1.426 1.026 1.431 1.022 1.438 1.01-1.005 1.448-1.437-1.011-1.005 1.441-1.437-1.006-.999 1.442-1.426-1.022-1.005 1.447-1.437-1.011 1.998-2.878 1.005-1.442-1.43-1.006-1.001 1.415h-.001l-.005.005-1.43-1.001-1.003 1.443-1.436-1.011.003-.005-.002-.001-1.004 1.447-.021-.016-.011.016-1.421-1.017-.003.004.004.003-1.004 1.445-1.436-1.011.003-.005-.015.02 1.447 1.018 1.431 1.011 1.464.99 1.437 1.011-1.004 1.442-1.437-1.011-1.031 1.436-1.427-1.008.994-1.44-1.432-1.006-1.004 1.442 1.432 1.008-1 1.44-1.437-.974-1.004 1.447-1.437-1.011.999-1.474 1.004-1.447 1.01-1.447-1.425-1.007-.99 1.442-.02-.014-.007.01-1.432-1.007-1.004 1.442-1.428-1.009-.001.003-.005-.003-.997 1.44-1.435-1.01-.002.003-1.437-1.011 1.004-1.468 1.437 1.01 1.005-1.446-1.438-.98-1.431-1.01-1.438-1.012 1.005-1.441 1.437 1.011 1.004-1.447 1.427 1.008-1.02 1.44 1.437 1.01 1.004-1.446-1.41-1.008.999-1.44 1.437 1.012 1.004-1.453 1.454 1.012-1.01 1.441-1.005 1.447-.999 1.447 1.418.996.997-1.432.014.01.008-.01 1.419 1.003.997-1.434.011.008.009-.012 1.421 1.016 1-1.441.002.002.013-.018 1.432 1.01 1.004-1.44.5.36.934.658-.007.01.001.001-.99 1.428.993-1.426.001.001.01-.013-1.436-1.02-1.41-1.006-1.438-1.01-1.432-1.012 1.005-1.447 1.405 1.038 1.004-1.447L24.89 48.7l-1 1.427 1.438 1.012 1.004-1.447-1.422-.999.995-1.427 1.432 1.011 1.01-1.468 1.437 1.011-1.005 1.447-1.004 1.441-1.005 1.447 1.434 1.009.992-1.428.003.002.013-.018 1.414.999.007-.01.01.007.993-1.428.005.004.002-.003 1.432 1.006 1.004-1.441.024.016.008-.01 1.416.999 1-1.44.017.014.004-.004-1.47-1.027-2.874-2.023 1.004-1.447 1.438 1.011 1.004-1.447 1.432 1.012 1.026-1.458 1.437 1.006 1.004-1.447 1.437 1.011-2.008 2.894-1.005 1.442 1.428 1.008.224-.315.768-1.108 1.244.879.188.132.116-.165-.199-.139.892-1.291-1.213-.854 1.005-1.446 1.436 1.012-.896 1.29 1.212.848-.117.17.2.14 1.005-1.442.021.015.011-.015 1.437 1.006.998-1.44-1.43-1.007-1.432-1.012-1.438-1.01 1.005-1.448 1.437 1.012 1.005-1.442 1.431 1.006 1.005-1.442 1.437 1.006 1.004-1.447zm5.464 16.77l1.436 1.012-1.004 1.446-1.436-1.012 1.004-1.445zm-6.319-.149l-1.004 1.447 1.432 1.006 1.004-1.442-1.432-1.01zm-37.932-.846l1.436 1.011-1.004 1.446-1.437-1.011zM32.502 56.2l-1.005 1.442 1.432 1.011 1.005-1.441zm-6.321-.138l1.436 1.012-1.004 1.446-1.436-1.012zm-15.066.138l-1.004 1.442.002.002zm4.894-.866l-1.004 1.442h.004zm28.696-1.307l-1 1.442 1.433 1.011 1.025-1.441zm-6.32-.138l1.437 1.012-1.005 1.445-1.436-1.01 1.005-1.447zM18.43 54.904l-.74 1.068.094-.133.65-.932zm38.484-3.05l-1.005 1.447 1.438 1.006.999-1.442-1.432-1.01zm-6.324-.137l1.435 1.012-1.004 1.445-1.436-1.01zm-31.577-.715l1.436 1.012-1.004 1.445-1.436-1.01zm21.134.353l-.738 1.06.004.002.707-1.02zm5.13-1.227l-1.004 1.436h.005l1-1.436zM31.22 48.825l1.436 1.012-1.004 1.445-1.436-1.011zm18.953.433l-.827 1.19.538-.77.29-.418zm7.312-1.303l-1 1.436v.005zm-20.377-1.442l-1.005 1.442 1.432 1.01 1.004-1.44zm18.525-2.028l1.436 1.012-1.005 1.445-1.436-1.011zm-6.323-.145l-1.01 1.44 1.443 1.012 1.005-1.442-1.438-1.011z" clip-rule="evenodd" fill="#004395" fill-rule="evenodd"/></g></g><path d="M109.407 226.496s4.215 1.688 10.377.215c3.493-1.256 5.323-3.979 7.27-5.672 1.947-1.693 2.493-2.103 2.493-2.103l.535.816 8.104-5.4-1.193-2.476s-.535-2.396-5.215-7.58l-2.996-6.051s-6.494-3.375-12.93 6.76c2.675 5.673 3.387 6.545 2.83 8.838-.556 2.291-.534 6.597-2.674 7.417-2.14.82-6.6 1.541-7.27 3.112-.669 1.572.67 2.124.67 2.124z" clip-rule="evenodd" fill="#8dabf4" fill-rule="evenodd"/><path d="M75.065 210.137s8.53-17.287 9.78-24.152c1.251-6.864 0-12.028.42-14.781.418-2.753 1.25-7.938 3.678-11.775 2.427-3.838 13.163-33.448 13.163-39.776 1.461-2.019 6.445-5.249 6.445-13.472 0-7.787-6.933-16.401-6.933-16.401s-24.367 15.435-25.205 11.399c.247 1.374 2.637 7.331 4.608 11.459-7.632 21.469-6.928 39.448-7.873 43.587-1.552 6.751-1.714 15.119-1.61 18.124.101 3.006-1.253 13.74-2.547 20.755-1.294 7.015-5.37 16.45-5.37 16.45l.665 3.344 5.473-1.803 3.802-1.922z" clip-rule="evenodd" fill="#43436c" fill-rule="evenodd"/><path d="M114.645 92.485a6.52 6.52 0 0 0 4.604-.665c2.465-1.308 2.686-2.445 2.686-2.445l-1.146-2-2.507-.46-2.276 1.38-1.064 1.23-.655 1.186z" clip-rule="evenodd" fill="#8950a1" fill-rule="evenodd"/><path d="M76.048 208.674c-5.974-2.832-13.557-.543-13.557-.543-1.645 8.083-4.323 10.959-8.693 12.182-4.37 1.224-8.25 1.979-8.905 2.653-.657.675-1.466 4.279 6.487 4.279 8.894 0 10.92.543 14.35-1.413.53-.316.296 1.44.296 1.44 3.953.082 9.64-.027 9.64-.027s-.03-5.051-.36-9.443a36.08 36.08 0 0 1 .742-9.128z" clip-rule="evenodd" fill="#8dabf4" fill-rule="evenodd"/><path d="M54.544 47.755l.472 8.258c-1.296 2.835-4.498 4.893-4.78 5.114" clip-rule="evenodd" fill="#32478c" fill-rule="evenodd"/><path d="M68.4 20.102s.586 5.29 1.784 7.526c1.198 2.235 2.15 4.095 4.722 6.377 2.574 2.282 3.224 3.656 5.53 3.133 2.303-.522 5.033-3.326 6.36-6.1a16.929 16.929 0 0 0 1.44-7.227c1.391-.633 2.632-2.716 1.966-5.64-.666-2.925-1.913.986-2.149 1.566-.602-.92-.618-3.572-2.262-4.262-1.644-.69-4.443.653-5.19 1.045-.747.392-4.185 3.577-12.2 3.582z" clip-rule="evenodd" fill="#f2c7b6" fill-rule="evenodd"/><path d="M114.63 91.284s1.152 1.354 4.353-.884c1.44-1.021 1.975-1.7 1.996-2.237 0 0-.215-1.098-1.134-1.23-.919-.133-4.43.51-4.43.51l-1.128 2.227z" clip-rule="evenodd" fill="#c5c9d7" fill-rule="evenodd"/><path d="M125.467 104.42c0 .731-.27.848-.212 1.271.058.424.212 1.188 0 1.59-.213.403-1.544.927-1.544.927a1.589 1.589 0 0 1-.62 1.092 2.316 2.316 0 0 1-1.104.53c-.313.064-.6-.35-.482-.636.133-.4.408-.738.774-.948l-.605-.445c-.063-.403-.153-1.192.133-1.208l.281-.064v-.419s-.806.064-.965-.154c-.16-.217-.075-.826.164-.916.24-.09 1.061-1.78-.97-.721-.1.053-1.162.313-.154 3.423.053.164-.812.048-.966-.275-.153-.323-.53-2.178-.594-2.343-.063-.163-.954-2.649-.854-4.514.08-1.143.09-2.29.032-3.433-.042-.637-2.769-10.105-3.103-10.778-.334-.673-1.798-4.541-1.21-5.797.59-1.255 1.884-2.178 2.711-2.15.828.026 1.862-.26 2.058-.064.447.428.774.967.944 1.562.144.715.462 3.18.754 3.646.255.42.435.88.53 1.362.163.618.287 1.247.371 1.88 0 .086.281.139.308.229.2.735.32 1.49.36 2.252.023 1.468.122 2.934.298 4.392.237.791.376 1.608.413 2.432 0 .589 1.49 2.904 2.806 4.356.437 1.167.686 2.395.738 3.64 0 0-.022.17-.292.281z" clip-rule="evenodd" fill="#f2c7b6" fill-rule="evenodd"/><path d="M117.081 70.113c.207.205 3.908 16.946 3.898 17.07-.669-1.364-6.719-.541-6.199 3.552-.45-.915-5.27-16.81-5.557-18.246-3.478-17.498 7.657-2.582 7.858-2.376z" clip-rule="evenodd" fill="#546ddc" fill-rule="evenodd"/><path d="M100.903 58.261l-1.912-9.55.018 5.169zm-36.327-4.775l3.824-5.73-1.508 4.24c-.4.297-1.385.911-2.316 1.49z" clip-rule="evenodd" fill="#32478c" fill-rule="evenodd"/><path d="M107.595 3.65c-3.177.96-3.262.796-15.14-2.154C80.58-1.454 70.792-.66 67.445 9.55c3.657-6.453 11.68-8.867 21.331-6.938 13.968 3.508 16.98 2.714 18.82 1.038z" clip-rule="evenodd" fill="#2f2e52" fill-rule="evenodd"/><path d="M73.391 51.363s3.872 35 4.178 36.857c.305 1.858 3.043 13.848 2.11 15.876-.934 2.027-9.14.275-9.236 0-.095-.277 1.33-11.704.39-16.343-.939-4.64-1.65-9.724-3.165-14.007-1.26-3.556-5.68-8.901-5.237-13.912a10.71 10.71 0 0 1 1.582-4.538s-13.85 8.742-17.232 8.19c-3.38-.552-5.98-2.68-4.9-6.417 1.081-3.737 4.298-13.126 4.298-13.126l8.64 2.006-.444 2.405s8.91-13.2 17.934-13.97c-1.07 1.916-1.667 2.41-1.667 2.41l-2.152 4.745 1.287 4.076 2.77 4.952.843.796z" clip-rule="evenodd" fill="#c277e1" fill-rule="evenodd"/><path d="M100.903 10.506s-5.89-1.923-9.327-3.29C88.14 5.848 75.37-.57 67.444 8.896c0 0 6.678-7.8 21.51-1.908a69.52 69.52 0 0 0 8.485 2.8c1.13.329 2.29.569 3.464.718z" clip-rule="evenodd" fill="#2f2e52" fill-rule="evenodd"/><path d="M100.903 11.461s-6.05-2.24-9.467-3.81C88.02 6.084 75.324-1.127 67.444 9.574c0 0 6.64-8.818 21.385-2.157a63.459 63.459 0 0 0 8.436 3.166c1.195.368 2.41.661 3.638.88z" clip-rule="evenodd" fill="#2f2e52" fill-rule="evenodd"/><path d="M136.274 18.514c-.535-1.196-3.212-4.077-7.977-4.606-8.726-.97-13.78 6.287-22.833 5.052C96.411 17.726 92.3 8.596 92.3 8.596c1.505.551 3.03 1.102 4.572 1.537 2.05.59 3.127.805 3.48.865.504.496 4.08 3.907 7.73 3.857 3.936-.077 12.395-4.05 13.985-4.44a7.698 7.698 0 0 1 1.113-.475c.407-.077 10.638-2.055 12.85 7.417.117.375.192.766.245 1.157z" clip-rule="evenodd" fill="#2f2e52" fill-rule="evenodd"/><path d="M141.665 121.412l-11.85-10.62-5.013 2.876 10.91 15.035c.23.533 16.84 7.877 16.84 7.877-.268-.058 5.344-12.5 8.578-14.199-10.348 1.939-12.774 0-19.465-.969z" clip-rule="evenodd" fill="#546ddc" fill-rule="evenodd"/><path d="M141.665 121.412l-11.85-10.62-5.013 2.876 10.91 15.035c.23.533 16.84 7.877 16.84 7.877-.268-.058 5.344-12.5 8.578-14.199-10.348 1.939-12.774 0-19.465-.969z" clip-rule="evenodd" fill="#004395" fill-rule="evenodd"/><path d="M157.93 124.21s1.893-1.267 3.1-1.871a8.69 8.69 0 0 0 2.623-4.003c1.887-5.534 10.86 3.361 10.86 3.361-1.878 1.411-2.84 3.697-2.526 5.995.541 5.253-14.1 2.364-14.1 2.364l-2.493-2.687z" clip-rule="evenodd" fill="#e1ab95" fill-rule="evenodd"/><path d="M117.2 225.394s3.504-22.449 3.74-28.874c.234-6.425 15.707-32.242 15.707-32.242s8.966 10.26 26.394 8.653l-.748 4.7-9.708 6.055s-5.605 5.602-19.544 19.785c-5.85 16.166-9.276 23.525-9.276 23.525l-1.886 3.184-4.387-.462-3.205-1.762 2.847-1.592z" clip-rule="evenodd" fill="#2f2e52" fill-rule="evenodd"/><path d="M171.762 126.342l4.663 7.257s-8.679 17.521-13.207 36.07c-4.528 18.549-23.013 2.463-23.013 2.463l-2.019-7.953v-3.083s4.026-29.028 22.668-38.843c-3.907 2.024-2.024 5.277 10.908 4.089z" clip-rule="evenodd" fill="#fa7b4e" fill-rule="evenodd"/><path d="M123.738 227.104v5.298c0 .466.78 1.722-1.833 1.588-2.464-.122-10.234.641-17.448-2.367-1.069-.429-1.917-1.232-2.367-2.239-.496-1.138-.13-1.834.513-1.88.916-.067 7.4 0 10.25-.861 2.853-.86 3.561-1.588 4.194-1.06.632.527.987 2.562 2.323 2.848 1.6.279 3.243-.22 4.368-1.327z" clip-rule="evenodd" fill="#8dabf4" fill-rule="evenodd"/><path d="M136.274 164.278s10.734 38.406 16.262 42.283c5.528 3.876 29.76 8.337 29.76 8.337l7.513-.081-4.745-5.98-3.756-2.293-17.008-8.927-1.503-24.599s-15.027 2.115-26.523-8.74z" clip-rule="evenodd" fill="#43436c" fill-rule="evenodd"/><g mask="url(#c)" transform="translate(41.44)"><path d="M143.982 208.417l5.523 1.391c.481.124 1.994-.286 1.193 2.156-.756 2.329-1.922 9.966-6.887 16.084a4.566 4.566 0 0 1-2.939 1.677c-1.315.172-1.944-.362-1.834-.987.166-.895 1.873-7.082 1.696-10.036-.177-2.954-.757-3.827-.044-4.312.712-.485 2.944-.264 3.562-1.477a4.697 4.697 0 0 0-.27-4.496z" clip-rule="evenodd" fill="#8dabf4" fill-rule="evenodd"/></g><path d="M123.738 227.104v5.298c0 .466.78 1.722-1.833 1.588-2.464-.122-10.234.641-17.448-2.367-1.069-.429-1.917-1.232-2.367-2.239-.496-1.138-.13-1.834.513-1.88.916-.067 7.4 0 10.25-.861 2.853-.86 3.561-1.588 4.194-1.06.632.527.987 2.562 2.323 2.848 1.6.279 3.243-.22 4.368-1.327z" clip-rule="evenodd" fill="#000" fill-rule="evenodd"/><g mask="url(#d)" transform="translate(41.44)"><path d="M143.982 208.417l5.523 1.391c.481.124 1.994-.286 1.193 2.156-.756 2.329-1.922 9.966-6.887 16.084a4.566 4.566 0 0 1-2.939 1.677c-1.315.172-1.944-.362-1.834-.987.166-.895 1.873-7.082 1.696-10.036-.177-2.954-.757-3.827-.044-4.312.712-.485 2.944-.264 3.562-1.477a4.697 4.697 0 0 0-.27-4.496z" clip-rule="evenodd" fill="#000" fill-rule="evenodd"/></g><path d="M156.36 173.991c-.312-6.902 7.48-11.038 13.405-7.421 2.644 1.605 5.298 4.51 4.65 9.497-1.229 9.416-7.793 12.381-7.793 12.381s.37 2.525 5.084 5.832c.495.365.771.954.735 1.567-.08 1.45-.424 2.349-2.397 2.767-.966.202-2.199-.273-2.472-.83-1.952-3.948-7.814-7.731-7.679-9.031.16-1.541 2.493-1.83 2.681-3.772.187-1.943-1.952-3.146-4.966-7.25a6.81 6.81 0 0 1-1.249-3.74z" clip-rule="evenodd" fill="#9ea5b2" fill-rule="evenodd"/><path d="M136.274 164.591l1.627-3.179s10.963 9.933 25.141 8.868v3.311s-14.493 2.543-26.768-9z" clip-rule="evenodd" fill="#8dabf4" fill-rule="evenodd"/><path d="M152.437 167.23c-.499.803 2.741 17.13-19.987 11.366 3.707 8.091 17.06 13.807 21.851-4.541.68-2.619-1.37-7.633-1.864-6.825z" clip-rule="evenodd" fill="#acb2bf" fill-rule="evenodd"/><path d="M172.305 135.625s-15.757 6.686-18.735 23.38c-3.088 17.25.83 22.009 9.67 24.375 1.99-2.975 3.151-5.037 4.333-6.617a15.82 15.82 0 0 0 2.836-11.418c-.562-4.246-.404-8.85 2.868-12.593 5.447-6.238-.972-17.127-.972-17.127z" clip-rule="evenodd" fill="#babfcc" fill-rule="evenodd"/><path d="M169.733 160.3a37.16 37.16 0 0 1-9.559-3.663v.184c2.683 2.154 5.701 3.712 8.895 4.591.181-.4.404-.773.664-1.112z" clip-rule="evenodd" fill="#000" fill-rule="evenodd"/><path d="M160.917 155.682a19.797 19.797 0 0 1-3.005-1.523c-.983-.701-1.513-.894-1.76-.905a8.855 8.855 0 0 1-1.87 0c-.433-.131-.877-.361-1.082-.387a.819.819 0 0 1-.513-.188 4.24 4.24 0 0 0-.703-.43c-.13-.052-.389-.12-.432-.36a3.751 3.751 0 0 0-.13-.88 2.814 2.814 0 0 1-.356-1.077c0-.356-.184-.754-.152-.983.033-.231-.135-.315-.227-.665-.092-.351-.15-1.208.162-1.402-.15-.811-.108-1.637.876-1.695a1.843 1.843 0 0 1 1.46.481s.361-.523 1.34-.23c.54.209.73.429 1 .487.49.142.914.445 1.198.858.438.58 1.362 2.092 1.784 2.364.421.272 6.446 3.06 6.446 3.06z" clip-rule="evenodd" fill="#f2c7b6" fill-rule="evenodd"/><path d="M156.35 154.973c12.293 7.491 22.571 6.509 26.543 6.256 3.143-.203 2.4-7.761.45-10.199-1.017-1.263-5.149-4.026-6.74-2.582-.493.451-.237 4.02-.22 4.685-8.349.132-16.8-4.3-16.8-4.3z" clip-rule="evenodd" fill="#0061d9" fill-rule="evenodd"/><path d="M145.834 170.563c.255.139.506.272.761.4l1.151-3.415a24.4 24.4 0 0 1-.757-.405z" clip-rule="evenodd" fill="#43436c" fill-rule="evenodd"/><path d="M159.22 149.004c-.117-2.907 7.454-11.365 9.893-10.445 7.03 2.66-2.528 8.805-1.975 10.613.553 1.808 6.825 7.774 5.193 11.312-1.63 3.538-4.203 6.092-5.602 3.984-1.399-2.107-.227-4.568.702-5.782.93-1.214-8.068-5.924-8.212-9.682z" clip-rule="evenodd" fill="#acb2bf" fill-rule="evenodd"/><path d="M174.45 151.859s-4.287-3.844-3.707-5.266c.58-1.421 8.167-8.525 10.746-8.084 2.58.443-1.308 6.92-.723 8.716.585 1.796 5.566 9.706 3.937 13.25-1.629 3.545-4.197 6.104-5.588 3.992-1.392-2.111-.232-4.576.701-5.793.933-1.216-5.367-6.815-5.367-6.815z" clip-rule="evenodd" fill="#9ea5b2" fill-rule="evenodd"/><path d="M178.337 130.864s3.1-6.251 3.633-6.651c.534-.4 1.905 1.723 2.086 2.614.181.891-1.134 10.64-2.902 12.41-1.769 1.772-2.817-8.373-2.817-8.373z" clip-rule="evenodd" fill="#2f2e52" fill-rule="evenodd"/><path d="M186.888 154.293a9.14 9.14 0 0 1-.353 1.756c-.626 1.558-2.296 2.975-1.707-1.616-.605 1.579-1.819 2.656-3.21 2.656a3.12 3.12 0 0 1-2.285-1.077c.471.668 1.712 3.168-4.649 4.445-1.706-.959-2.6-2.888-3.38-4.688-.9-2.064-1.488-3.88-2.184-5.782a20.036 20.036 0 0 1-1.038-10.319c.214-1.219.526-2.42.931-3.589.963-2.769 2.558-5.48 5.35-6.655a5.391 5.391 0 0 1 4.997.275c2.745 1.741 2.675 5.356 3.253 8.412.535 2.764 1.717 5.34 2.723 7.959 1.006 2.618 1.825 5.415 1.552 8.223z" clip-rule="evenodd" fill="#cbd0df" fill-rule="evenodd"/><path d="M179.64 149.374c-3.187 1.348-10.204 5.168-5.414 11.081 6.51.076 11.51-2.098 12.226-4.429.552-1.769 1.042-5.19-.93-6.134-2.465-1.177-4.714-1.02-5.883-.518z" clip-rule="evenodd" fill="#babfcc" fill-rule="evenodd"/><path d="M185.985 152.461a6.457 6.457 0 0 1-.43 2.357c-.638 1.649-1.92 2.774-3.388 2.774a3.308 3.308 0 0 1-2.41-1.125 5.926 5.926 0 0 1-1.418-3.983c0-1.755 1.96-3.488 4.082-3.488 2.124 0 3.564.63 3.564 3.465z" clip-rule="evenodd" fill="#2b2b4d" fill-rule="evenodd"/><path d="M185.985 156.269c-.626 2.083-2.007 3.933-3.998 4.688a9.764 9.764 0 0 1-4.107.386 7.822 7.822 0 0 1-3.367-.792c6.15-1.234 4.95-3.646 4.495-4.297a3.016 3.016 0 0 0 2.208 1.041c1.361 0 2.535-1.041 3.104-2.568-.02 3.902 1.024 2.568 1.665 1.542z" clip-rule="evenodd" fill="#babfcc" fill-rule="evenodd"/><path d="M172.601 131.664s-2.62-6.941-3.145-7.427c-.525-.486-2.215 1.568-2.5 2.498-.286.931.055 11.326 1.745 13.396 1.69 2.069 3.9-8.467 3.9-8.467z" clip-rule="evenodd" fill="#2b2b4d" fill-rule="evenodd"/><path d="M181.944 124.163s3.232.441 4.194 3.985c.962 3.546 1.173 7.411 0 7.476-1.173.065-4.945-6.078-4.933-7.345.135-1.387.382-2.763.74-4.116zm-11.98.157s-3.404-1.897-3.99 7.528c-.49 7.497 1.967 7.597 1.967 7.597s.694-1.581 2.248-4.399c2.301-4.173 1.608-4.173-.226-10.726z" clip-rule="evenodd" fill="#43436c" fill-rule="evenodd"/><path d="M152.636 172.167c1.084-6.736 9.66-9.196 14.773-4.535 2.288 2.085 4.34 5.406 2.674 10.104-3.13 8.852-10.24 10.42-10.24 10.42s-.14 2.519 3.856 6.646c.415.451.568 1.074.407 1.658-.374 1.383-.895 2.191-2.939 2.201-.993 0-2.115-.697-2.278-1.288-1.134-4.223-6.172-9.016-5.77-10.246.471-1.462 2.841-1.278 3.411-3.12.57-1.842-1.296-3.426-3.444-7.987a6.571 6.571 0 0 1-.45-3.853z" clip-rule="evenodd" fill="#acb2bf" fill-rule="evenodd"/><path d="M168.783 101.246a5.993 5.993 0 0 0-3.526 2.216c-1.607 1.968-2.187 4.063-2.963 4.863a6.473 6.473 0 0 1-3.334 1.479c-.602.051-1.046.562-.992 1.142.012.132.05.26.112.379.191.3-.077 1.368-.378 2.011-.3.641-1.213 4.415 1.444 6.683.131.116.267.221.4.326a12.308 12.308 0 0 0 6.903 2.49l6.898.373-.41-4.263 3.788-2.82.656-12.505-5.176-4.29z" clip-rule="evenodd" fill="#f2c7b6" fill-rule="evenodd"/><path d="M170.866 112.022l2.611-5.552s-14.383-3.282-3.492-12.87c2.481 3.595 4.967 4.603 7.578 5.886 2.611 1.283 7.78 4.2 6.56 8.485a10.567 10.567 0 0 1-.19 8.967c-.397 1.007-2.763 3.845-8.22 5.218a4.412 4.412 0 0 0-2.486 1.951c-.304.573-3.264-3.42-3.128-4.709 2.231-.726 3.634-1.108 4.238-3.234.604-2.127-1.806-3.909-3.47-4.142z" clip-rule="evenodd" fill="#2f2e52" fill-rule="evenodd"/><path d="M82.74 50.586s1.055 34.956.94 35.513c-.117.557-.634 18.633 3.372 17.99 4.007-.642 15.06-8.782 16.644-9.308 1.584-.525-2.286-6.177-2.338-7.291-.053-1.115-1.33-2.123-1.156-3.991.174-1.868 0-24.11 0-24.11s6.086 11.873 6.915 12.611c.828.738 7.263 19.062 7.263 19.062s-.153-2.733 3.051-3.524c3.363-.833 3.547.462 3.547.462l-4.307-17.152s-5.532-25.595-12.8-32.854C97.32 34.444 93.25 33.43 93.25 33.43l-1.868 4.739-1.41 4.155-4.38 3.333-2.202 2.234-.65 2.696z" clip-rule="evenodd" fill="#c277e1" fill-rule="evenodd"/><path d="M113.412 90.075l.653 1.615s1.012-2.877 3.938-3.384c2.925-.508 3.932.672 3.932.672l-.233-1.146c-.18-.95-1.036-1.69-2.123-1.842a6.083 6.083 0 0 0-3.573.73c-3.39 1.73-2.594 3.355-2.594 3.355zM99.947 52.53l.601 6.666 2.267 3.84-2.868-10.505zm-49.71 8.597c.327-.22 3.35-2.279 4.78-5.114l-.493-8.258s-1.67 10.573-4.288 13.372zm11.471-4.776l3.824-3.82-1.399 2.357c-.394.312-1.588.857-2.425 1.463zm9.721 37.762c2.536.857 5.375 1.634 5.536 1.33.24-.498-.723-5.294-.723-5.294l-4.974-1.325c.19 1.757.243 3.525.161 5.29zM87.98 29.61c2.203-.033 3.565.547 3.178 1.922-.916 3.33-2.855 9.279-5.567 11.426-3.575 2.826-5.296 2.404-4.618 3.346.678.942 1.742 4.316 1.742 4.316s9.116-3.363 9.83-10.538l.71-7.17s-.069-3.302-5.275-3.302zm.495 59.987s.135 5.4.537 5.878c.403.479 7.972-4.085 9.191-5.377 1.22-1.293.66-6.049.66-6.049z" clip-rule="evenodd" fill="#a161bc" fill-rule="evenodd"/><path d="M127.434 114.612c-.793-.482-1.562-1.207-2.46-1.554-.899-.347-.834-6.331.111-5.968 0 0 .082-.083 0-.186-.082-.104-.264-.285-.475-.518a2.91 2.91 0 0 1-.764-1.414c0-.425.2-.886.588-.865.387.02.37.217.51.435.141.217.165.352.44.487.277.135.4 0 .682.352.408.474.78.97 1.115 1.487.45.741.84 1.507 1.174 2.294.165.488-.058.234.053.612.112.378.805.761 1.174 1.005-.04 1.036-.076 2.072-.047 3.139z" clip-rule="evenodd" fill="#e1ab95" fill-rule="evenodd"/><path d="M55.972 90.735h1.457s5.562-46.423 11.542-51.285c3.178-4.733 5.165-6.191 5.165-6.191l-.726-.785s-3.025 1.431-7.03 7.286c-3.834 5.588-8.506 43.758-10.408 50.975z" clip-rule="evenodd" fill="#32478c" fill-rule="evenodd"/><path d="M45.014 42.644l-.46 1.328c-.166.492.067 1.037.522 1.216a.794.794 0 0 0 .176.048l8.563 1.551c.466.083.907-.248 1-.749l.184-.971c.094-.509-.207-1.004-.676-1.112l-8.31-1.908c-.424-.102-.852.154-1 .597zm29.122 2.91l-.95 4.963s-3.096.915-4.885-2.697c-2.15-4.358-.102-11.992 4.435-15.346.214.252.45.525.7.772a11.016 11.016 0 0 0-2.754 7.36c0 4.58 3.454 4.948 3.454 4.948z" clip-rule="evenodd" fill="#a161bc" fill-rule="evenodd"/><path d="M70.764 42.025a9.6 9.6 0 0 1-.074-1.147c-.012-2.813.877-5.528 2.49-7.606-.227-.271-.462-.543-.633-.798 0 .016-3.442 4.873-1.783 9.55z" clip-rule="evenodd" fill="#8950a1" fill-rule="evenodd"/></svg>