<svg xmlns="http://www.w3.org/2000/svg" xmlns:xlink="http://www.w3.org/1999/xlink">
  <symbol id="dots-menu" viewBox="0 0 24 24">
    <path d="M6 8a2 2 0 1 0 0-4 2 2 0 0 0 0 4zm0 6a2 2 0 1 0 0-4 2 2 0 0 0 0 4zm2 4a2 2 0 1 1-4 0 2 2 0 0 1 4 0zm4-10a2 2 0 1 0 0-4 2 2 0 0 0 0 4zm2 4a2 2 0 1 1-4 0 2 2 0 0 1 4 0zm-2 8a2 2 0 1 0 0-4 2 2 0 0 0 0 4zm8-14a2 2 0 1 1-4 0 2 2 0 0 1 4 0zm-2 8a2 2 0 1 0 0-4 2 2 0 0 0 0 4zm2 4a2 2 0 1 1-4 0 2 2 0 0 1 4 0z"/>
  </symbol>
  <symbol id="envelope" viewBox="0 0 24 24">
    <path d="M19 6C19.5523 6 20 6.44772 20 7V17C20 17.5523 19.5523 18 19 18H5C4.44772 18 4 17.5523 4 17V7C4 6.44772 4.44772 6 5 6H19ZM6 8V9.503L11.9999 13.3565L18 9.504V8.001L11.9999 11.857L6 8Z"/>
  </symbol>
  <symbol id="eye" viewBox="0 0 24 24">
    <path d="M12 6a9.997 9.997 0 0 0-8.662 5.002l-.29.5a1 1 0 0 0 .003 1.002l.289.5A9.997 9.997 0 0 0 12 18a9.996 9.996 0 0 0 8.66-5v-.002l.29-.5a1 1 0 0 0 0-1.002l-.29-.498-.002-.002A9.998 9.998 0 0 0 12 6zm0 2a7.992 7.992 0 0 1 6.928 3.998 1 1 0 0 0 0 .002A7.989 7.989 0 0 1 12 16a7.993 7.993 0 0 1-6.93-3.998V12a1 1 0 0 0 .002 0A7.987 7.987 0 0 1 12 8z"/>
    <circle r="2" cy="12" cx="12.07"/>
  </symbol>
  <symbol id="logotype-symbol" viewBox="0 0 38 40">
    <path d="M37.5297 22.4847V28.7201C35.7991 28.7201 34.1623 29.4002 32.9397 30.6282C31.7545 31.8374 31.0771 33.4436 31.0771 35.1063V40H24.8692V35.1439C24.8505 33.4624 24.2108 31.8564 23.0069 30.6282C21.9347 29.5513 20.5425 28.89 19.0564 28.7577C19.019 28.7386 18.9813 28.7386 18.9436 28.7577C17.4575 28.89 16.0653 29.5513 14.9931 30.6282C13.789 31.8564 13.1495 33.4624 13.1308 35.1439V40H6.92268V35.1439C6.90396 33.4624 6.26447 31.8564 5.06033 30.6282C3.83772 29.4002 2.20094 28.7201 0.470327 28.7201V22.4847C3.87515 22.4847 7.05442 23.8074 9.4622 26.2258C9.66929 26.4338 9.85742 26.6415 10.0456 26.8681C10.196 26.6603 10.3841 26.4526 10.591 26.2446C12.6795 24.1471 15.3673 22.8519 18.2616 22.5562L18.4169 22.5413C18.605 22.5223 18.8119 22.5035 19 22.5035C19.1505 22.5035 19.313 22.5155 19.4683 22.5301L19.5831 22.5413C22.5368 22.8059 25.2832 24.1096 27.409 26.2446C27.6159 26.4526 27.804 26.6603 27.9732 26.8681C28.1426 26.6603 28.3307 26.4526 28.5378 26.2446C30.9456 23.8262 34.1248 22.4847 37.5297 22.4847ZM27.9732 0C33.5038 0 38 4.51573 38 10.0707C38 15.6257 33.5038 20.1417 27.9732 20.1417C24.0416 20.1417 20.6365 17.8554 19 14.5489C17.3635 17.8554 13.9584 20.1417 10.0268 20.1417C4.49594 20.1417 0 15.6257 0 10.0707C0 4.51573 4.49594 0 10.0268 0C13.9584 0 17.3635 2.28606 19 5.5926C20.6365 2.28606 24.0416 0 27.9732 0ZM27.9732 6.23516C25.8663 6.23516 24.1544 7.95459 24.1544 10.0707C24.1544 12.1871 25.8663 13.9063 27.9732 13.9063C30.0803 13.9063 31.7922 12.1871 31.7922 10.0707C31.7922 7.95459 30.0803 6.23516 27.9732 6.23516ZM10.0268 6.23516C7.91997 6.23516 6.20808 7.95459 6.20808 10.0707C6.20808 12.1871 7.91997 13.9063 10.0268 13.9063C12.1337 13.9063 13.8456 12.1871 13.8456 10.0707C13.8456 7.95459 12.1337 6.23516 10.0268 6.23516Z"/>
  </symbol>
  <symbol id="logotype-text" viewBox="0 0 117 40">
    <path fill="black" fill-rule="evenodd" opacity="0.641483" d="M26.6058 32C27.0584 32 27.4909 32.0722 27.9033 32.2167C28.3157 32.3611 28.677 32.5889 28.9872 32.9C29.2974 33.2111 29.5438 33.6093 29.7263 34.0944C29.9088 34.5796 30 35.1593 30 35.8333V36.0556C30 36.7593 29.9088 37.3593 29.7263 37.8556C29.5438 38.3519 29.2974 38.7593 28.9872 39.0778C28.677 39.3963 28.3157 39.6296 27.9033 39.7778C27.4909 39.9259 27.0584 40 26.6058 40C26.1533 40 25.7208 39.9259 25.3084 39.7778C24.896 39.6296 24.5347 39.3963 24.2245 39.0778C23.9142 38.7593 23.6679 38.3519 23.4854 37.8556C23.3029 37.3593 23.2117 36.7593 23.2117 36.0556V35.8333C23.2117 35.1593 23.3029 34.5796 23.4854 34.0944C23.6679 33.6093 23.9142 33.2111 24.2245 32.9C24.5347 32.5889 24.896 32.3611 25.3084 32.2167C25.7208 32.0722 26.1533 32 26.6058 32ZM1.75182 36.5222C1.28467 36.3444 0.930658 36.0685 0.689781 35.6944C0.448904 35.3204 0.328467 34.8778 0.328467 34.3667C0.328467 34.0481 0.386861 33.75 0.50365 33.4722C0.620439 33.1944 0.79197 32.9556 1.01825 32.7556C1.24453 32.5556 1.52555 32.3981 1.86131 32.2833C2.19708 32.1685 2.58029 32.1111 3.01095 32.1111H5.91241V39.8889H4.88321V36.7333H2.85219C2.80474 36.7333 2.75547 36.7296 2.70438 36.7222L1.10584 39.8889H0L1.75182 36.5222ZM1.35766 34.3667C1.35766 34.8185 1.49635 35.1741 1.77372 35.4333C2.0511 35.6926 2.48175 35.8222 3.06569 35.8222H4.88321V33.0222H3.06569C2.48175 33.0222 2.0511 33.1463 1.77372 33.3944C1.49635 33.6426 1.35766 33.9667 1.35766 34.3667ZM9.13139 32.1111H8.10219V39.8889H9.13139V36.3444H13.0949V39.8889H14.1241V32.1111H13.0949V35.4333H9.13139V32.1111ZM20.5073 37.9556H17.2117L16.5109 39.8889H15.438L18.3394 32.1111H19.4343L22.3358 39.8889H21.219L20.5073 37.9556ZM20.1788 37.0444H17.5511L18.865 33.4444L20.1788 37.0444ZM27.4708 33.0833C27.1934 32.9833 26.9051 32.9333 26.6058 32.9333C26.3066 32.9333 26.0201 32.9833 25.7464 33.0833C25.4726 33.1833 25.2281 33.3463 25.0128 33.5722C24.7974 33.7981 24.6259 34.0963 24.4982 34.4667C24.3704 34.837 24.3066 35.2926 24.3066 35.8333V36.0556C24.3066 36.6259 24.3723 37.1037 24.5037 37.4889C24.635 37.8741 24.8084 38.1833 25.0237 38.4167C25.2391 38.65 25.4854 38.8167 25.7628 38.9167C26.0401 39.0167 26.3212 39.0667 26.6058 39.0667C26.9124 39.0667 27.2062 39.0167 27.4872 38.9167C27.7682 38.8167 28.0128 38.65 28.2208 38.4167C28.4288 38.1833 28.5949 37.8741 28.719 37.4889C28.8431 37.1037 28.9051 36.6259 28.9051 36.0556V35.8333C28.9051 35.2926 28.8412 34.837 28.7135 34.4667C28.5858 34.0963 28.4161 33.7981 28.2044 33.5722C27.9927 33.3463 27.7482 33.1833 27.4708 33.0833Z"/>
    <path fill="#00001E" d="M28.7242 14.1319V23.9689H26.3288V16.2956H23.8735V19.9787C23.8735 23.4917 21.6727 24.1661 19.7413 23.9689V21.86C20.8193 22.0151 21.4782 21.7053 21.4782 20.0613V14.1319H28.7242ZM8.38283 14.1319V23.9689H5.98847V16.2956H2.84465V23.9689H0.448922V14.1319H8.38283ZM15.8911 14.1319L19.4544 23.9689H16.8344L16.3103 22.4222H12.4177L11.8935 23.9689H9.2735L12.8368 14.1319H15.8911ZM36.23 14.1319L39.7933 23.9689H37.1733L36.6492 22.4222H32.7566L32.2328 23.9689H29.6128L33.1758 14.1319H36.23ZM46.9723 14.1319V16.2956H44.2774V23.9689H41.882V16.2956H39.1871V14.1319H46.9723ZM52.9834 14.1319L56.5467 23.9689H53.9267L53.4025 22.4222H49.5099L48.9861 23.9689H46.3658L49.9291 14.1319H52.9834ZM51.4564 16.703L50.2286 20.3136H52.6838L51.4564 16.703ZM14.3638 16.703L13.1363 20.3136H15.5916L14.3638 16.703ZM34.703 16.703L33.4753 20.3136H35.9308L34.703 16.703ZM23.3795 0.194803V7.87051H25.9246V0.194803H28.32V7.87051H30.8652V0.194803H33.2609V7.87051H34.3837V11.9182H31.988V10.0342H20.9841V0.194803H23.3795ZM48.4945 0C50.3958 0 52.0725 0.884315 52.9861 2.27601L50.92 3.40032C50.4557 2.64096 49.5575 2.1911 48.4945 2.1911C46.6379 2.1911 45.4402 3.35786 45.4402 5.11451C45.4402 6.87116 46.6379 8.03792 48.4945 8.03792C49.5575 8.03792 50.4707 7.58806 50.92 6.8311L52.9861 7.95541C52.0876 9.34471 50.4109 10.2318 48.4945 10.2318C45.3353 10.2318 43.0449 8.01053 43.0449 5.11451C43.0449 2.21849 45.3353 0 48.4945 0ZM5.44963 0C8.45771 0 10.8979 2.21849 10.8979 5.11451C10.8979 8.01053 8.45771 10.2318 5.44963 10.2318C2.44018 10.2318 0 8.01053 0 5.11451C0 2.21849 2.44018 0 5.44963 0ZM66.3532 0.194803C68.1797 0.194803 69.6618 1.30679 69.6618 3.00832C69.6618 3.82279 69.3175 4.46745 68.7486 4.93203C69.5271 5.39696 70.0362 6.15631 70.0362 7.15326C70.0362 8.89485 68.524 10.0342 66.6527 10.0342H62.251V0.194803H66.3532ZM18.9727 0.194803V2.36091H14.6308V3.85018H16.2778C18.4188 3.85018 19.8712 5.07206 19.8712 6.941C19.8712 8.81234 18.4188 10.0342 16.2778 10.0342H12.2354V0.194803H18.9727ZM81.6966 0.194803V3.96281H84.9905V0.194803H87.3859V10.0342H84.9905V6.12653H81.6966V10.0342H79.3012V0.194803H81.6966ZM91.6429 0.194803V3.96281H94.9365V0.194803H97.3322V10.0342H94.9365V6.12653H91.6429V10.0342H89.2472V0.194803H91.6429ZM104.838 0.194803L108.401 10.0342H105.781L105.257 8.48744H101.364L100.841 10.0342H98.2205L101.784 0.194803H104.838ZM117 0.194803V10.0342H114.604V6.80098H113.841L111.61 10.0342H108.915L111.371 6.52127C110.098 6.01389 109.214 4.84713 109.214 3.56773C109.214 1.69879 110.817 0.194803 112.808 0.194803H117ZM77.8115 0.194803V2.36091H73.6943V3.9902H77.4371V6.12653H73.6943V7.87051H77.8864V10.0342H71.2989V0.194803H77.8115ZM61.1354 0.194803V2.36091H58.4405V10.0342H56.0451V2.36091H53.3502V0.194803H61.1354ZM42.1538 0.194803V2.36091H38.0366V3.9902H41.7795V6.12653H38.0366V7.87051H42.2287V10.0342H35.6412V0.194803H42.1538ZM5.44963 2.1911C3.74284 2.1911 2.39539 3.35786 2.39539 5.11451C2.39539 6.87116 3.74284 8.03792 5.44963 8.03792C7.15505 8.03792 8.5025 6.87116 8.5025 5.11451C8.5025 3.35786 7.15505 2.1911 5.44963 2.1911ZM16.2778 5.95911H14.6308V7.92529H16.2778C16.9366 7.92529 17.4755 7.6579 17.4755 6.941C17.4755 6.2265 16.9366 5.95911 16.2778 5.95911ZM66.6527 6.04162H64.6464V7.92529H66.6527C67.2514 7.92529 67.6408 7.53328 67.6408 6.98345C67.6408 6.43636 67.2514 6.04162 66.6527 6.04162ZM103.311 2.76832L102.083 6.38124H104.539L103.311 2.76832ZM114.604 2.30374H112.808C112.149 2.30374 111.61 2.85323 111.61 3.56773C111.61 4.28497 112.149 4.8348 112.808 4.8348H114.604V2.30374ZM66.3532 2.30374H64.6464V4.04772H66.3532C66.8921 4.04772 67.2664 3.68276 67.2664 3.17573C67.2664 2.66835 66.9071 2.30374 66.3532 2.30374Z"/>
  </symbol>
  <symbol id="logotype-text2" viewBox="0 0 135 62">
    <path d="M9.79488 16.3122V27.6635H7.03653V18.809H3.41479V27.6635H0.654862V16.3122H9.79488ZM18.4445 16.3122L22.5495 27.6635H19.5312L18.9274 25.8787H14.4431L13.8393 27.6635H10.8209L14.926 16.3122H18.4445ZM41.8753 16.3122L45.9804 27.6635H42.9621L42.3582 25.8787H37.8739L37.2705 27.6635H34.2522L38.3568 16.3122H41.8753ZM54.2507 16.3122V18.809H51.1461V27.6635H48.3866V18.809H45.282V16.3122H54.2507ZM61.1755 16.3122L65.2806 27.6635H62.2623L61.6584 25.8787H57.1741L56.5707 27.6635H53.552L57.657 16.3122H61.1755ZM59.4165 19.2792L58.002 23.4455H60.8305L59.4165 19.2792ZM40.1163 19.2792L38.7018 23.4455H41.5307L40.1163 19.2792ZM16.685 19.2792L15.271 23.4455H18.0995L16.685 19.2792ZM27.0713 0.229673V9.08696H30.0034V0.229673H32.7629V9.08696H35.695V0.229673H38.4549V9.08696H39.7484V13.7578H36.9885V11.5837H24.3118V0.229673H27.0713ZM6.41577 0.00488281C9.88114 0.00488281 12.6923 2.56488 12.6923 5.90671C12.6923 9.24854 9.88114 11.8117 6.41577 11.8117C2.94883 11.8117 0.137695 9.24854 0.137695 5.90671C0.137695 2.56488 2.94883 0.00488281 6.41577 0.00488281ZM56.0043 0.00488281C58.1946 0.00488281 60.1262 1.02533 61.1787 2.63125L58.7985 3.92864C58.2636 3.05239 57.2288 2.53328 56.0043 2.53328C53.8655 2.53328 52.4857 3.87965 52.4857 5.90671C52.4857 7.93377 53.8655 9.28014 56.0043 9.28014C57.2288 9.28014 58.2809 8.76103 58.7985 7.88755L61.1787 9.18493C60.1436 10.7881 58.212 11.8117 56.0043 11.8117C52.3648 11.8117 49.7262 9.24854 49.7262 5.90671C49.7262 2.56488 52.3648 0.00488281 56.0043 0.00488281ZM21.9946 0.229673V2.72923H16.9927V4.44775H18.89C21.3565 4.44775 23.0297 5.85772 23.0297 8.01436C23.0297 10.1738 21.3565 11.5837 18.89 11.5837H14.2331V0.229673H21.9946ZM48.6997 0.229673V2.72923H43.9566V4.60933H48.2684V7.07451H43.9566V9.08696H48.786V11.5837H41.1971V0.229673H48.6997ZM70.5668 0.229673V2.72923H67.4623V11.5837H64.7027V2.72923H61.5982V0.229673H70.5668ZM89.778 0.229673V2.72923H85.0349V4.60933H89.3467V7.07451H85.0349V9.08696H89.8643V11.5837H82.2754V0.229673H89.778ZM94.2537 0.229673V4.57772H98.0483V0.229673H100.808V11.5837H98.0483V7.07451H94.2537V11.5837H91.4942V0.229673H94.2537ZM105.712 0.229673V4.57772H109.506V0.229673H112.266V11.5837H109.506V7.07451H105.712V11.5837H102.952V0.229673H105.712ZM120.913 0.229673L125.018 11.5837H121.999L121.396 9.79886H116.911L116.308 11.5837H113.29L117.394 0.229673H120.913ZM134.924 0.229673V11.5837H132.164V7.85278H131.284L128.715 11.5837H125.61L128.439 7.53002C126.973 6.94454 125.955 5.59817 125.955 4.12182C125.955 1.96518 127.801 0.229673 130.095 0.229673H134.924ZM76.5779 0.229673C78.682 0.229673 80.3895 1.51283 80.3895 3.47629C80.3895 4.41614 79.9928 5.16004 79.3374 5.69614C80.2343 6.23264 80.8208 7.10888 80.8208 8.2593C80.8208 10.269 79.0786 11.5837 76.9229 11.5837H71.8521V0.229673H76.5779ZM6.41577 2.53328C4.44952 2.53328 2.89723 3.87965 2.89723 5.90671C2.89723 7.93377 4.44952 9.28014 6.41577 9.28014C8.38045 9.28014 9.93274 7.93377 9.93274 5.90671C9.93274 3.87965 8.38045 2.53328 6.41577 2.53328ZM18.89 6.88133H16.9927V9.15017H18.89C19.649 9.15017 20.2698 8.84162 20.2698 8.01436C20.2698 7.18987 19.649 6.88133 18.89 6.88133ZM76.9229 6.97654H74.6116V9.15017H76.9229C77.6126 9.15017 78.0612 8.69782 78.0612 8.06335C78.0612 7.43204 77.6126 6.97654 76.9229 6.97654ZM119.154 3.19935L117.739 7.36844H120.568L119.154 3.19935ZM132.164 2.66325H130.095C129.336 2.66325 128.715 3.29733 128.715 4.12182C128.715 4.94948 129.336 5.58394 130.095 5.58394H132.164V2.66325ZM76.5779 2.66325H74.6116V4.6757H76.5779C77.1986 4.6757 77.6299 4.25456 77.6299 3.66948C77.6299 3.08399 77.216 2.66325 76.5779 2.66325Z" fill="#000"/>
    <path d="M22.8801 25.2302C24.122 25.4092 24.881 25.0517 24.881 23.1546V16.3125H33.2286V27.6638H30.469V18.8093H27.6406V23.0594C27.6406 27.1131 25.1052 27.8914 22.8801 27.6638V25.2302Z" fill="#000"/>
    <path d="M17.3779 56.7148L19.3098 60.1807L20.9941 56.7148H21.4687L19.5025 60.7369C19.0077 61.7546 18.4819 61.9999 17.9242 61.9999C17.7174 61.9999 17.4874 61.9711 17.2802 61.9106V61.4954C17.444 61.5413 17.6512 61.5847 17.8525 61.5847C18.2806 61.5847 18.6284 61.4346 18.9849 60.7831L19.0739 60.5959L16.8863 56.7148H17.3779ZM3.41319 56.6342C5.2211 56.6342 6.11088 57.9952 6.11088 59.3186C6.11088 60.6417 5.2211 61.9999 3.41319 61.9999C1.60488 61.9999 0.716674 60.6417 0.716674 59.3186C0.716674 57.9952 1.60488 56.6342 3.41319 56.6342ZM25.7459 56.7148V57.1387H22.8024V61.9189H22.3656V56.7148H25.7459ZM12.4622 56.7148H14.1669C15.3458 56.7148 16.3546 57.0869 16.3546 58.3669C16.3546 59.6529 15.3458 60.025 14.1669 60.025H12.8994V61.9189H12.4622V56.7148ZM28.1493 56.7148L30.4547 61.9189H29.9805L29.3652 60.5208H26.4387L25.8148 61.9189H25.3406L27.6546 56.7148H28.1493ZM7.81402 56.7148V59.0504H9.16819L10.8442 56.7148H11.3471L9.53332 59.2491L11.5252 61.9189H11.0135L9.18552 59.4656H7.81402V61.9189H7.37563V56.7148H7.81402ZM3.41319 57.0494C1.89399 57.0494 1.16097 58.1884 1.16097 59.3186C1.16097 60.4485 1.89399 61.5847 3.41319 61.5847C4.93239 61.5847 5.66698 60.4485 5.66698 59.3186C5.66698 58.1884 4.93239 57.0494 3.41319 57.0494ZM27.8992 57.1703C27.876 57.2224 27.8531 57.2742 27.833 57.3319L26.6085 60.1056H29.1868L27.9654 57.3319C27.9422 57.2742 27.9221 57.2224 27.8992 57.1703ZM14.2727 57.1393L12.9081 57.1387V59.6011H14.1902C15.1245 59.6011 15.9091 59.3475 15.9091 58.3669C15.9091 57.4125 15.1751 57.1537 14.2727 57.1393ZM30.5378 46.9465C32.3461 46.9465 33.2371 48.3075 33.2371 49.6309C33.2371 50.9544 32.3461 52.3122 30.5378 52.3122C28.7299 52.3122 27.8417 50.9544 27.8417 49.6309C27.8417 48.3075 28.7299 46.9465 30.5378 46.9465ZM18.3728 46.9465C20.1807 46.9465 21.0717 48.3075 21.0717 49.6309C21.0717 50.9544 20.1807 52.3122 18.3728 52.3122C16.5645 52.3122 15.6763 50.9544 15.6763 49.6309C15.6763 48.3075 16.5645 46.9465 18.3728 46.9465ZM59.9336 46.9465C61.7419 46.9465 62.6329 48.3075 62.6329 49.6309C62.6329 50.9544 61.7419 52.3122 59.9336 52.3122C58.1257 52.3122 57.2375 50.9544 57.2375 49.6309C57.2375 48.3075 58.1257 46.9465 59.9336 46.9465ZM49.571 46.9465C51.3789 46.9465 52.2698 48.3075 52.2698 49.6309C52.2698 50.9544 51.3789 52.3122 49.571 52.3122C47.7627 52.3122 46.8745 50.9544 46.8745 49.6309C46.8745 48.3075 47.7627 46.9465 49.571 46.9465ZM41.8064 47.0271V49.4058H45.1725V47.0271H45.6097V52.2316H45.1725V49.8297H41.8064V52.2316H41.3696V47.0271H41.8064ZM34.8729 47.0271L37.1267 50.3661L39.3718 47.0271H39.7425V52.2316H39.3056V47.8749L37.2586 50.9082H36.9857L34.9391 47.8749V52.2316H34.5023V47.0271H34.8729ZM22.7736 47.0271V49.4058H26.1398V47.0271H26.5766V52.2316H26.1398V49.8297H22.7736V52.2316H22.3368V47.0271H22.7736ZM15.3313 47.0271V47.451H13.4339V52.2316H12.9971V47.451H11.0998V47.0271H15.3313ZM3.25091 47.0271L5.5563 52.2316H5.08167L4.46682 50.8331H1.5387L0.916372 52.2316H0.442139L2.75344 47.0271H3.25091ZM56.9153 47.0271V47.451H53.9718V52.2316H53.535V47.0271H56.9153ZM8.57303 47.0271C9.61643 47.0271 10.3294 47.4455 10.3294 48.3363C10.3294 49.0281 9.86969 49.3915 9.39506 49.4954C9.87796 49.5989 10.5279 49.9276 10.5365 50.8189C10.5279 52.0238 9.36631 52.2316 8.58761 52.2316H6.55636V47.0271H8.57303ZM18.3728 47.3617C16.8548 47.3617 16.119 48.5007 16.119 49.6309C16.119 50.7612 16.8548 51.897 18.3728 51.897C19.8932 51.897 20.6262 50.7612 20.6262 49.6309C20.6262 48.5007 19.8932 47.3617 18.3728 47.3617ZM30.5378 47.3617C29.0202 47.3617 28.2844 48.5007 28.2844 49.6309C28.2844 50.7612 29.0202 51.897 30.5378 51.897C32.0586 51.897 32.7916 50.7612 32.7916 49.6309C32.7916 48.5007 32.0586 47.3617 30.5378 47.3617ZM49.571 47.3617C48.053 47.3617 47.3172 48.5007 47.3172 49.6309C47.3172 50.7612 48.053 51.897 49.571 51.897C51.0914 51.897 51.8244 50.7612 51.8244 49.6309C51.8244 48.5007 51.0914 47.3617 49.571 47.3617ZM59.9336 47.3617C58.416 47.3617 57.6802 48.5007 57.6802 49.6309C57.6802 50.7612 58.416 51.897 59.9336 51.897C61.4544 51.897 62.1874 50.7612 62.1874 49.6309C62.1874 48.5007 61.4544 47.3617 59.9336 47.3617ZM8.76927 49.7348L7.00223 49.7344V51.8077H8.50686C9.21703 51.8077 10.0907 51.7327 10.0907 50.7754C10.0907 49.8818 9.29222 49.7426 8.76927 49.7348ZM2.99922 47.483L2.93147 47.6442L1.70847 50.4179H4.28839L3.06539 47.6442C3.04373 47.5865 3.02088 47.5347 2.99922 47.483ZM8.54428 47.451H7.00223V49.3165H8.75698C9.34347 49.3165 9.88387 49.0656 9.88387 48.3968C9.88387 47.6963 9.35765 47.451 8.54428 47.451ZM56.1968 37.3398V42.12H59.4594V37.3398H59.9021V42.12H60.5402V43.8065H60.1179L60.1262 42.5439H55.7596V37.3398H56.1968ZM26.7321 37.2588C28.5401 37.2588 29.4314 38.6198 29.4314 39.9432C29.4314 41.2667 28.5401 42.6245 26.7321 42.6245C24.9238 42.6245 24.0356 41.2667 24.0356 39.9432C24.0356 38.6198 24.9238 37.2588 26.7321 37.2588ZM68.8767 37.2588C70.685 37.2588 71.576 38.6198 71.576 39.9432C71.576 41.2667 70.685 42.6245 68.8767 42.6245C67.0684 42.6245 66.1802 41.2667 66.1802 39.9432C66.1802 38.6198 67.0684 37.2588 68.8767 37.2588ZM79.2397 37.2588C81.0476 37.2588 81.939 38.6198 81.939 39.9432C81.939 41.2667 81.0476 42.6245 79.2397 42.6245C77.4314 42.6245 76.5432 41.2667 76.5432 39.9432C76.5432 38.6198 77.4314 37.2588 79.2397 37.2588ZM22.7677 37.3398V42.5439H22.3309V37.7633H20.1291L20.0748 38.4001C19.8782 40.6314 19.6031 42.611 18.4157 42.619C18.2921 42.619 18.1514 42.5957 18.0018 42.5439V42.12C18.114 42.1662 18.209 42.1805 18.3496 42.1805C19.3441 42.1805 19.5225 39.7789 19.7065 37.3398H22.7677ZM6.69737 37.3398L8.94958 40.6784L11.1947 37.3398H11.5654V42.5439H11.1285V38.1872L9.08469 41.2205H8.80897L6.76354 38.1872V42.5439H6.32673V37.3398H6.69737ZM54.4232 37.3398V37.7633H51.4136V39.7125H54.2018V40.1364H51.4136V42.12H54.4748V42.5439H50.9763V37.3398H54.4232ZM4.69527 37.3398V42.5439H4.25846V40.5892H2.65693L1.13773 42.5439H0.604812L2.16852 40.5283C1.391 40.3584 0.813175 39.8539 0.813175 38.9599C0.813175 37.853 1.72422 37.3398 2.77628 37.3398H4.69527ZM34.8957 37.3398V39.7184H38.2622V37.3398H38.6991V42.5439H38.2622V40.1419H34.8957V42.5439H34.4589V37.3398H34.8957ZM15.3628 37.3398L17.6681 42.5439H17.1939L16.5787 41.1454H13.6525L13.0286 42.5439H12.5544L14.8684 37.3398H15.3628ZM76.2214 37.3398V37.7633H73.2779V42.5439H72.8407V37.3398H76.2214ZM43.7726 37.3398V37.7633H40.763V39.7125H43.5513V40.1364H40.763V42.12H43.8242V42.5439H40.3262V37.3398H43.7726ZM62.1244 37.3398V39.675H63.4809L65.1569 37.3398H65.6599L63.8433 39.8741L65.8383 42.5439H65.3266L63.4955 40.0902H62.1244V42.5439H61.6872V37.3398H62.1244ZM45.5463 37.3398V39.7184H48.9124V37.3398H49.3496V42.5439H48.9124V40.1419H45.5463V42.5439H45.1095V37.3398H45.5463ZM79.2397 37.674C77.7217 37.674 76.9859 38.813 76.9859 39.9432C76.9859 41.0735 77.7217 42.2093 79.2397 42.2093C80.7605 42.2093 81.4935 41.0735 81.4935 39.9432C81.4935 38.813 80.7605 37.674 79.2397 37.674ZM68.8767 37.674C67.3591 37.674 66.6229 38.813 66.6229 39.9432C66.6229 41.0735 67.3591 42.2093 68.8767 42.2093C70.3975 42.2093 71.1305 41.0735 71.1305 39.9432C71.1305 38.813 70.3975 37.674 68.8767 37.674ZM26.7322 37.674C25.2141 37.674 24.4784 38.813 24.4784 39.9432C24.4784 41.0735 25.2141 42.2093 26.7322 42.2093C28.2525 42.2093 28.9855 41.0735 28.9855 39.9432C28.9855 38.813 28.2525 37.674 26.7322 37.674ZM15.1126 37.7953C15.0898 37.847 15.067 37.8988 15.0469 37.9565L13.8223 40.7302H16.4006L15.1788 37.9565C15.156 37.8988 15.1359 37.847 15.1126 37.7953ZM4.25097 37.7633H2.75344C1.92392 37.7633 1.26417 38.1441 1.26417 38.9599C1.26417 39.7876 1.92392 40.1653 2.75344 40.1653H4.25097V37.7633ZM33.0906 39.7414V40.1419H30.489V39.7414H33.0906Z" fill="#232323"/>
  </symbol>
  <symbol id="dropdown-arrow" viewBox="0 0 24 24">
    <path d="M6.34326 11L7.75748 9.58569L12 13.8283L16.2428 9.58569L17.657 11L12 16.6568L6.34326 11Z"/>
  </symbol>
  <symbol id="dropdown-triangle" viewBox="0 0 24 24">
    <path d="M8 10h8l-4 4z"/>
  </symbol>
  <symbol id="photo-album" viewBox="0 0 40 40">
    <circle fill="#fff" stroke="none" cx="20" cy="20" r="20"/>
    <rect fill="none" stroke-width="2" x="12" y="14" width="16" height="12" rx="1"/>
    <path d="M23 19l4 4v3H12v-5l6 3 5-5zm-6-3a2 2 0 1 1 0 4 2 2 0 0 1 0-4z" stroke="none"/>
  </symbol>
  <symbol id="video-album" viewBox="0 0 40 40">
    <circle fill="#fff" stroke="none" cx="20" cy="20" r="20"/>
    <path fill-rule="evenodd" clip-rule="evenodd" d="M15 13.7232C15 12.9554 15.8295 12.474 16.4961 12.8549L27.4806 19.1318C28.1524 19.5157 28.1524 20.4843 27.4806 20.8682L16.4961 27.1451C15.8295 27.526 15 27.0446 15 26.2768V13.7232Z"/>
  </symbol>
  <symbol id="social-youtube" viewBox="0 0 40 40">
    <path d="M20 40C31.0457 40 40 31.0457 40 20C40 8.9543 31.0457 0 20 0C8.9543 0 0 8.9543 0 20C0 31.0457 8.9543 40 20 40Z"/>
    <path d="M17.7488 22.9864V16.935L23.374 19.9612L17.7488 22.9864ZM28.8464 16.8128C28.7463 15.6889 28.0318 14.272 26.5636 14.2212C22.4638 13.9626 17.6068 13.892 13.4329 14.2212C12.138 14.3574 11.2502 15.8368 11.1536 16.9605C10.9488 19.3208 10.9488 20.6641 11.1536 23.0244C11.2515 24.1481 12.1165 25.6359 13.4352 25.792C17.6587 26.0506 22.492 26.0875 26.5658 25.792C27.8439 25.5842 28.7496 24.1481 28.8474 23.0244C29.051 20.663 29.051 19.1731 28.8464 16.8128Z" fill="#fff"/>
  </symbol>
  <symbol id="social-facebook" viewBox="0 0 40 40">
    <path d="M20 40C31.0457 40 40 31.0457 40 20C40 8.9543 31.0457 0 20 0C8.9543 0 0 8.9543 0 20C0 31.0457 8.9543 40 20 40Z"/>
    <path d="M22.7364 13.0027L21.0573 13C19.1712 13 17.9526 14.3525 17.9526 16.4455V18.0343H16.2645C16.1184 18.0343 16 18.1616 16 18.3194V20.6216C16 20.7787 16.1184 20.9067 16.2645 20.9067H17.9526V26.7149C17.9526 26.872 18.0703 27 18.2163 27H20.4187C20.5649 27 20.6825 26.872 20.6825 26.7149V20.9067H22.656C22.802 20.9067 22.9205 20.7787 22.9205 20.6216L22.9212 18.3194C22.9212 18.244 22.8936 18.1716 22.8436 18.1175C22.7943 18.0642 22.7271 18.0343 22.6567 18.0343H20.6825V16.6874C20.6825 16.0402 20.8251 15.7116 21.6052 15.7116L22.7357 15.7109C22.8816 15.7109 23 15.5829 23 15.4258V13.2887C23 13.1307 22.8816 13.0035 22.7364 13.0027Z" fill="#fff"/>
  </symbol>
  <symbol id="social-vkontakte" viewBox="0 0 40 40">
    <path d="M20 40C31.0457 40 40 31.0457 40 20C40 8.9543 31.0457 0 20 0C8.9543 0 0 8.9543 0 20C0 31.0457 8.9543 40 20 40Z"/>
    <path d="M28.5641 15.7448C28.6961 15.3155 28.5641 15 27.9354 15H25.8568C25.3283 15 25.0846 15.2725 24.9525 15.573C24.9525 15.573 23.8955 18.0848 22.398 19.7162C21.9136 20.1885 21.6934 20.3388 21.4291 20.3388C21.2969 20.3388 21.1057 20.1885 21.1057 19.7592V15.7448C21.1057 15.2296 20.9523 15 20.5118 15H17.2454C16.9151 15 16.7164 15.2391 16.7164 15.4658C16.7164 15.9541 17.4652 16.0669 17.5424 17.4407V20.4247C17.5424 21.0789 17.4212 21.1976 17.157 21.1976C16.4523 21.1976 14.7382 18.6746 13.7216 15.7878C13.5224 15.2267 13.3225 15 12.7913 15H10.7127C10.1188 15 10 15.2725 10 15.573C10 16.1097 10.7046 18.7717 13.2811 22.2924C14.9988 24.6966 17.4189 26 19.621 26C20.9422 26 21.1057 25.7105 21.1057 25.2119V23.3947C21.1057 22.8158 21.2309 22.7003 21.6493 22.7003C21.9575 22.7003 22.4861 22.8505 23.7193 24.0097C25.1287 25.3837 25.3611 26 26.1538 26H28.2324C28.8263 26 29.1232 25.7105 28.9519 25.1392C28.7645 24.5699 28.0915 23.7438 27.1987 22.7647C26.7143 22.2064 25.9875 21.6055 25.7673 21.3049C25.4589 20.9184 25.5471 20.7466 25.7673 20.4032C25.7673 20.4032 28.2998 16.9256 28.5641 15.7448Z" fill="#fff"/>
  </symbol>
  <symbol id="close-button" viewBox="0 0 40 40">
    <path d="M20 40C31.0457 40 40 31.0457 40 20C40 8.9543 31.0457 0 20 0C8.9543 0 0 8.9543 0 20C0 31.0457 8.9543 40 20 40Z"/>
    <path d="M20 18.5738L24.5738 14L26 15.4262L21.4262 20L26 24.5738L24.5738 26L20 21.4262L15.4262 26L14 24.5738L18.5738 20L14 15.4262L15.4262 14L20 18.5738Z" fill="#333333"/>
  </symbol>
  <symbol id="makeagency-logotype" viewBox="0 0 32 32">
    <path d="M16 32C24.8366 32 32 24.8366 32 16C32 7.16344 24.8366 0 16 0C7.16344 0 0 7.16344 0 16C0 24.8366 7.16344 32 16 32Z"/>
    <path fill-rule="evenodd" clip-rule="evenodd" d="M18.0149 18.3168H16.7368L18.3824 20.2623H17.4474L15.0016 17.5449H15.6347H17.2782C19.3458 17.5449 21.0209 15.9256 21.0209 13.9405C21.0209 13.0857 20.7094 12.2926 20.19 11.676C19.5641 10.7448 20.2869 10.0622 20.9286 10.0622C20.7659 9.33511 19.8771 9.28069 19.8771 9.28069C19.778 8.9943 19.5265 8.57129 19.0382 8.57129H17.7614C17.7446 8.57129 17.7282 8.57378 17.7121 8.57623L17.7121 8.57623C17.6984 8.57829 17.6851 8.58033 17.6718 8.58079C17.0439 8.64795 16.4351 9.10628 17.0433 10.0091L17.0436 10.0094C17.0591 10.031 17.9131 11.2163 17.9131 12.435C17.9131 14.5133 16.1595 16.3388 13.9948 16.3388H10.0089H9.24023H5.14282C5.14282 17.0142 5.67453 17.5449 6.33055 17.5449H8.91627H13.7677L16.0615 20.2623H8.91627V22.2701H23.8468V20.2623H19.7691L18.0149 18.3168ZM16.2372 14.7807C16.8646 14.1494 17.2245 13.2964 17.2245 12.4435C17.2245 11.415 16.466 10.3496 16.4582 10.339L16.4536 10.3312L16.4485 10.3227C16.2797 10.0737 16.1841 9.85405 16.1386 9.65277L10.4285 15.7812H13.8892C14.7657 15.7812 15.5996 15.4223 16.2372 14.7807ZM6.27548 22.2701H8.16323V20.2424H6.27548V22.2701ZM24.6588 22.2856V20.2584L26.2857 21.2282L24.6588 22.2856ZM18.4749 9.90512C18.6617 9.90512 18.8129 9.75995 18.8129 9.58072C18.8129 9.40149 18.6617 9.25627 18.4749 9.25627C18.2882 9.25627 18.1369 9.40149 18.1369 9.58072C18.1369 9.75995 18.2882 9.90512 18.4749 9.90512Z" fill="#fff"/>
  </symbol>
  <symbol id="paper" viewBox="0 0 34 42">
    <path d="M0 2C0 0.89543 0.895431 0 2 0H24L34 11V40C34 41.1046 33.1046 42 32 42H2C0.89543 42 0 41.1046 0 40L0 2Z"/>
    <path d="M24 0L34 11V13H23C22.4477 13 22 12.5523 22 12L22 0H24Z" fill="#d9d9de"/>
    <rect x="8" y="24" width="14" height="2" rx="1" fill="#333"/>
    <rect x="8" y="32" width="8" height="2" rx="1" fill="#333"/>
  </symbol>
  <symbol id="phone" viewBox="0 0 40 40">
    <path d="M20 40c11.046 0 20-8.954 20-20S31.046 0 20 0 0 8.954 0 20s8.954 20 20 20z"/>
    <path d="M27.641 24.655l-2.47-2.477c-.493-.491-1.308-.476-1.817.034L22.11 23.46a22.36 22.36 0 0 1-.245-.137c-.787-.437-1.862-1.034-2.995-2.17-1.136-1.138-1.734-2.219-2.17-3.008-.047-.082-.091-.162-.134-.24l.835-.836.411-.412c.51-.512.525-1.328.034-1.82l-2.472-2.477c-.49-.493-1.306-.478-1.817.034l-.695.701.018.02a4.051 4.051 0 0 0-.573 1.014 4.179 4.179 0 0 0-.255 1.029c-.328 2.711.91 5.188 4.263 8.551 4.637 4.646 8.375 4.297 8.536 4.278.35-.041.687-.125 1.03-.258.367-.144.71-.339 1.008-.573l.015.014.706-.693c.508-.512.523-1.328.032-1.822z" fill="#333"/>
  </symbol>
  <symbol id="default-avatar" viewBox="0 0 40 40">
    <circle cx="20" cy="20" r="20" fill="#e5e5eb"/>
    <path d="M20.136 28c4.916 0 9.553 1.237 13.637 3.427C30.503 35.447 25.608 38 20.136 38 14.665 38 9.77 35.446 6.5 31.427A28.756 28.756 0 0 1 20.136 28zm0-17.273a7.273 7.273 0 1 1 0 14.546 7.273 7.273 0 0 1 0-14.546z" fill="#fff" fill-rule="evenodd"/>
  </symbol>
</svg>
