<svg width="34" height="24" viewBox="0 0 34 24" xmlns="http://www.w3.org/2000/svg"><path d="M7.463 8.727c4.104 0 7.43 3.42 7.43 7.636 0 4.218-3.326 7.637-7.43 7.637-4.103 0-7.43-3.42-7.43-7.637L0 15.273C0 6.838 6.653 0 14.86 0v4.364c-2.835 0-5.5 1.134-7.505 3.195A10.96 10.96 0 0 0 6.299 8.82c.38-.062.768-.094 1.164-.094zm19.107 0c4.103 0 7.43 3.42 7.43 7.636C34 20.581 30.673 24 26.57 24c-4.104 0-7.43-3.42-7.43-7.637l-.034-1.09C19.106 6.838 25.76 0 33.967 0v4.364c-2.835 0-5.501 1.134-7.506 3.195a10.96 10.96 0 0 0-1.056 1.262c.38-.062.768-.094 1.165-.094z" fill="#D9D9DE"/></svg>
