<svg xmlns="http://www.w3.org/2000/svg" xmlns:xlink="http://www.w3.org/1999/xlink">
  <symbol id="dots-menu" viewBox="0 0 24 24">
    <path d="M6 8a2 2 0 1 0 0-4 2 2 0 0 0 0 4zm0 6a2 2 0 1 0 0-4 2 2 0 0 0 0 4zm2 4a2 2 0 1 1-4 0 2 2 0 0 1 4 0zm4-10a2 2 0 1 0 0-4 2 2 0 0 0 0 4zm2 4a2 2 0 1 1-4 0 2 2 0 0 1 4 0zm-2 8a2 2 0 1 0 0-4 2 2 0 0 0 0 4zm8-14a2 2 0 1 1-4 0 2 2 0 0 1 4 0zm-2 8a2 2 0 1 0 0-4 2 2 0 0 0 0 4zm2 4a2 2 0 1 1-4 0 2 2 0 0 1 4 0z"/>
  </symbol>
  <symbol id="envelope" viewBox="0 0 24 24">
    <path d="M19 6C19.5523 6 20 6.44772 20 7V17C20 17.5523 19.5523 18 19 18H5C4.44772 18 4 17.5523 4 17V7C4 6.44772 4.44772 6 5 6H19ZM6 8V9.503L11.9999 13.3565L18 9.504V8.001L11.9999 11.857L6 8Z"/>
  </symbol>
  <symbol id="eye" viewBox="0 0 24 24">
    <path d="M12 6a9.997 9.997 0 0 0-8.662 5.002l-.29.5a1 1 0 0 0 .003 1.002l.289.5A9.997 9.997 0 0 0 12 18a9.996 9.996 0 0 0 8.66-5v-.002l.29-.5a1 1 0 0 0 0-1.002l-.29-.498-.002-.002A9.998 9.998 0 0 0 12 6zm0 2a7.992 7.992 0 0 1 6.928 3.998 1 1 0 0 0 0 .002A7.989 7.989 0 0 1 12 16a7.993 7.993 0 0 1-6.93-3.998V12a1 1 0 0 0 .002 0A7.987 7.987 0 0 1 12 8z"/>
    <circle r="2" cy="12" cx="12.07"/>
  </symbol>
  <symbol id="logotype-symbol" viewBox="0 0 38 40">
    <path d="M37.5297 22.4847V28.7201C35.7991 28.7201 34.1623 29.4002 32.9397 30.6282C31.7545 31.8374 31.0771 33.4436 31.0771 35.1063V40H24.8692V35.1439C24.8505 33.4624 24.2108 31.8564 23.0069 30.6282C21.9347 29.5513 20.5425 28.89 19.0564 28.7577C19.019 28.7386 18.9813 28.7386 18.9436 28.7577C17.4575 28.89 16.0653 29.5513 14.9931 30.6282C13.789 31.8564 13.1495 33.4624 13.1308 35.1439V40H6.92268V35.1439C6.90396 33.4624 6.26447 31.8564 5.06033 30.6282C3.83772 29.4002 2.20094 28.7201 0.470327 28.7201V22.4847C3.87515 22.4847 7.05442 23.8074 9.4622 26.2258C9.66929 26.4338 9.85742 26.6415 10.0456 26.8681C10.196 26.6603 10.3841 26.4526 10.591 26.2446C12.6795 24.1471 15.3673 22.8519 18.2616 22.5562L18.4169 22.5413C18.605 22.5223 18.8119 22.5035 19 22.5035C19.1505 22.5035 19.313 22.5155 19.4683 22.5301L19.5831 22.5413C22.5368 22.8059 25.2832 24.1096 27.409 26.2446C27.6159 26.4526 27.804 26.6603 27.9732 26.8681C28.1426 26.6603 28.3307 26.4526 28.5378 26.2446C30.9456 23.8262 34.1248 22.4847 37.5297 22.4847ZM27.9732 0C33.5038 0 38 4.51573 38 10.0707C38 15.6257 33.5038 20.1417 27.9732 20.1417C24.0416 20.1417 20.6365 17.8554 19 14.5489C17.3635 17.8554 13.9584 20.1417 10.0268 20.1417C4.49594 20.1417 0 15.6257 0 10.0707C0 4.51573 4.49594 0 10.0268 0C13.9584 0 17.3635 2.28606 19 5.5926C20.6365 2.28606 24.0416 0 27.9732 0ZM27.9732 6.23516C25.8663 6.23516 24.1544 7.95459 24.1544 10.0707C24.1544 12.1871 25.8663 13.9063 27.9732 13.9063C30.0803 13.9063 31.7922 12.1871 31.7922 10.0707C31.7922 7.95459 30.0803 6.23516 27.9732 6.23516ZM10.0268 6.23516C7.91997 6.23516 6.20808 7.95459 6.20808 10.0707C6.20808 12.1871 7.91997 13.9063 10.0268 13.9063C12.1337 13.9063 13.8456 12.1871 13.8456 10.0707C13.8456 7.95459 12.1337 6.23516 10.0268 6.23516Z"/>
  </symbol>
  <symbol id="logotype-text" viewBox="0 0 117 40">
    <path fill="black" fill-rule="evenodd" opacity="0.641483" d="M26.6058 32C27.0584 32 27.4909 32.0722 27.9033 32.2167C28.3157 32.3611 28.677 32.5889 28.9872 32.9C29.2974 33.2111 29.5438 33.6093 29.7263 34.0944C29.9088 34.5796 30 35.1593 30 35.8333V36.0556C30 36.7593 29.9088 37.3593 29.7263 37.8556C29.5438 38.3519 29.2974 38.7593 28.9872 39.0778C28.677 39.3963 28.3157 39.6296 27.9033 39.7778C27.4909 39.9259 27.0584 40 26.6058 40C26.1533 40 25.7208 39.9259 25.3084 39.7778C24.896 39.6296 24.5347 39.3963 24.2245 39.0778C23.9142 38.7593 23.6679 38.3519 23.4854 37.8556C23.3029 37.3593 23.2117 36.7593 23.2117 36.0556V35.8333C23.2117 35.1593 23.3029 34.5796 23.4854 34.0944C23.6679 33.6093 23.9142 33.2111 24.2245 32.9C24.5347 32.5889 24.896 32.3611 25.3084 32.2167C25.7208 32.0722 26.1533 32 26.6058 32ZM1.75182 36.5222C1.28467 36.3444 0.930658 36.0685 0.689781 35.6944C0.448904 35.3204 0.328467 34.8778 0.328467 34.3667C0.328467 34.0481 0.386861 33.75 0.50365 33.4722C0.620439 33.1944 0.79197 32.9556 1.01825 32.7556C1.24453 32.5556 1.52555 32.3981 1.86131 32.2833C2.19708 32.1685 2.58029 32.1111 3.01095 32.1111H5.91241V39.8889H4.88321V36.7333H2.85219C2.80474 36.7333 2.75547 36.7296 2.70438 36.7222L1.10584 39.8889H0L1.75182 36.5222ZM1.35766 34.3667C1.35766 34.8185 1.49635 35.1741 1.77372 35.4333C2.0511 35.6926 2.48175 35.8222 3.06569 35.8222H4.88321V33.0222H3.06569C2.48175 33.0222 2.0511 33.1463 1.77372 33.3944C1.49635 33.6426 1.35766 33.9667 1.35766 34.3667ZM9.13139 32.1111H8.10219V39.8889H9.13139V36.3444H13.0949V39.8889H14.1241V32.1111H13.0949V35.4333H9.13139V32.1111ZM20.5073 37.9556H17.2117L16.5109 39.8889H15.438L18.3394 32.1111H19.4343L22.3358 39.8889H21.219L20.5073 37.9556ZM20.1788 37.0444H17.5511L18.865 33.4444L20.1788 37.0444ZM27.4708 33.0833C27.1934 32.9833 26.9051 32.9333 26.6058 32.9333C26.3066 32.9333 26.0201 32.9833 25.7464 33.0833C25.4726 33.1833 25.2281 33.3463 25.0128 33.5722C24.7974 33.7981 24.6259 34.0963 24.4982 34.4667C24.3704 34.837 24.3066 35.2926 24.3066 35.8333V36.0556C24.3066 36.6259 24.3723 37.1037 24.5037 37.4889C24.635 37.8741 24.8084 38.1833 25.0237 38.4167C25.2391 38.65 25.4854 38.8167 25.7628 38.9167C26.0401 39.0167 26.3212 39.0667 26.6058 39.0667C26.9124 39.0667 27.2062 39.0167 27.4872 38.9167C27.7682 38.8167 28.0128 38.65 28.2208 38.4167C28.4288 38.1833 28.5949 37.8741 28.719 37.4889C28.8431 37.1037 28.9051 36.6259 28.9051 36.0556V35.8333C28.9051 35.2926 28.8412 34.837 28.7135 34.4667C28.5858 34.0963 28.4161 33.7981 28.2044 33.5722C27.9927 33.3463 27.7482 33.1833 27.4708 33.0833Z"/>
    <path fill="#00001E" d="M28.7242 14.1319V23.9689H26.3288V16.2956H23.8735V19.9787C23.8735 23.4917 21.6727 24.1661 19.7413 23.9689V21.86C20.8193 22.0151 21.4782 21.7053 21.4782 20.0613V14.1319H28.7242ZM8.38283 14.1319V23.9689H5.98847V16.2956H2.84465V23.9689H0.448922V14.1319H8.38283ZM15.8911 14.1319L19.4544 23.9689H16.8344L16.3103 22.4222H12.4177L11.8935 23.9689H9.2735L12.8368 14.1319H15.8911ZM36.23 14.1319L39.7933 23.9689H37.1733L36.6492 22.4222H32.7566L32.2328 23.9689H29.6128L33.1758 14.1319H36.23ZM46.9723 14.1319V16.2956H44.2774V23.9689H41.882V16.2956H39.1871V14.1319H46.9723ZM52.9834 14.1319L56.5467 23.9689H53.9267L53.4025 22.4222H49.5099L48.9861 23.9689H46.3658L49.9291 14.1319H52.9834ZM51.4564 16.703L50.2286 20.3136H52.6838L51.4564 16.703ZM14.3638 16.703L13.1363 20.3136H15.5916L14.3638 16.703ZM34.703 16.703L33.4753 20.3136H35.9308L34.703 16.703ZM23.3795 0.194803V7.87051H25.9246V0.194803H28.32V7.87051H30.8652V0.194803H33.2609V7.87051H34.3837V11.9182H31.988V10.0342H20.9841V0.194803H23.3795ZM48.4945 0C50.3958 0 52.0725 0.884315 52.9861 2.27601L50.92 3.40032C50.4557 2.64096 49.5575 2.1911 48.4945 2.1911C46.6379 2.1911 45.4402 3.35786 45.4402 5.11451C45.4402 6.87116 46.6379 8.03792 48.4945 8.03792C49.5575 8.03792 50.4707 7.58806 50.92 6.8311L52.9861 7.95541C52.0876 9.34471 50.4109 10.2318 48.4945 10.2318C45.3353 10.2318 43.0449 8.01053 43.0449 5.11451C43.0449 2.21849 45.3353 0 48.4945 0ZM5.44963 0C8.45771 0 10.8979 2.21849 10.8979 5.11451C10.8979 8.01053 8.45771 10.2318 5.44963 10.2318C2.44018 10.2318 0 8.01053 0 5.11451C0 2.21849 2.44018 0 5.44963 0ZM66.3532 0.194803C68.1797 0.194803 69.6618 1.30679 69.6618 3.00832C69.6618 3.82279 69.3175 4.46745 68.7486 4.93203C69.5271 5.39696 70.0362 6.15631 70.0362 7.15326C70.0362 8.89485 68.524 10.0342 66.6527 10.0342H62.251V0.194803H66.3532ZM18.9727 0.194803V2.36091H14.6308V3.85018H16.2778C18.4188 3.85018 19.8712 5.07206 19.8712 6.941C19.8712 8.81234 18.4188 10.0342 16.2778 10.0342H12.2354V0.194803H18.9727ZM81.6966 0.194803V3.96281H84.9905V0.194803H87.3859V10.0342H84.9905V6.12653H81.6966V10.0342H79.3012V0.194803H81.6966ZM91.6429 0.194803V3.96281H94.9365V0.194803H97.3322V10.0342H94.9365V6.12653H91.6429V10.0342H89.2472V0.194803H91.6429ZM104.838 0.194803L108.401 10.0342H105.781L105.257 8.48744H101.364L100.841 10.0342H98.2205L101.784 0.194803H104.838ZM117 0.194803V10.0342H114.604V6.80098H113.841L111.61 10.0342H108.915L111.371 6.52127C110.098 6.01389 109.214 4.84713 109.214 3.56773C109.214 1.69879 110.817 0.194803 112.808 0.194803H117ZM77.8115 0.194803V2.36091H73.6943V3.9902H77.4371V6.12653H73.6943V7.87051H77.8864V10.0342H71.2989V0.194803H77.8115ZM61.1354 0.194803V2.36091H58.4405V10.0342H56.0451V2.36091H53.3502V0.194803H61.1354ZM42.1538 0.194803V2.36091H38.0366V3.9902H41.7795V6.12653H38.0366V7.87051H42.2287V10.0342H35.6412V0.194803H42.1538ZM5.44963 2.1911C3.74284 2.1911 2.39539 3.35786 2.39539 5.11451C2.39539 6.87116 3.74284 8.03792 5.44963 8.03792C7.15505 8.03792 8.5025 6.87116 8.5025 5.11451C8.5025 3.35786 7.15505 2.1911 5.44963 2.1911ZM16.2778 5.95911H14.6308V7.92529H16.2778C16.9366 7.92529 17.4755 7.6579 17.4755 6.941C17.4755 6.2265 16.9366 5.95911 16.2778 5.95911ZM66.6527 6.04162H64.6464V7.92529H66.6527C67.2514 7.92529 67.6408 7.53328 67.6408 6.98345C67.6408 6.43636 67.2514 6.04162 66.6527 6.04162ZM103.311 2.76832L102.083 6.38124H104.539L103.311 2.76832ZM114.604 2.30374H112.808C112.149 2.30374 111.61 2.85323 111.61 3.56773C111.61 4.28497 112.149 4.8348 112.808 4.8348H114.604V2.30374ZM66.3532 2.30374H64.6464V4.04772H66.3532C66.8921 4.04772 67.2664 3.68276 67.2664 3.17573C67.2664 2.66835 66.9071 2.30374 66.3532 2.30374Z"/>
  </symbol>
  <symbol id="logotype-text2" viewBox="0 0 135 62">
    <path d="M9.79488 16.3122V27.6635H7.03653V18.809H3.41479V27.6635H0.654862V16.3122H9.79488ZM18.4445 16.3122L22.5495 27.6635H19.5312L18.9274 25.8787H14.4431L13.8393 27.6635H10.8209L14.926 16.3122H18.4445ZM41.8753 16.3122L45.9804 27.6635H42.9621L42.3582 25.8787H37.8739L37.2705 27.6635H34.2522L38.3568 16.3122H41.8753ZM54.2507 16.3122V18.809H51.1461V27.6635H48.3866V18.809H45.282V16.3122H54.2507ZM61.1755 16.3122L65.2806 27.6635H62.2623L61.6584 25.8787H57.1741L56.5707 27.6635H53.552L57.657 16.3122H61.1755ZM59.4165 19.2792L58.002 23.4455H60.8305L59.4165 19.2792ZM40.1163 19.2792L38.7018 23.4455H41.5307L40.1163 19.2792ZM16.685 19.2792L15.271 23.4455H18.0995L16.685 19.2792ZM27.0713 0.229673V9.08696H30.0034V0.229673H32.7629V9.08696H35.695V0.229673H38.4549V9.08696H39.7484V13.7578H36.9885V11.5837H24.3118V0.229673H27.0713ZM6.41577 0.00488281C9.88114 0.00488281 12.6923 2.56488 12.6923 5.90671C12.6923 9.24854 9.88114 11.8117 6.41577 11.8117C2.94883 11.8117 0.137695 9.24854 0.137695 5.90671C0.137695 2.56488 2.94883 0.00488281 6.41577 0.00488281ZM56.0043 0.00488281C58.1946 0.00488281 60.1262 1.02533 61.1787 2.63125L58.7985 3.92864C58.2636 3.05239 57.2288 2.53328 56.0043 2.53328C53.8655 2.53328 52.4857 3.87965 52.4857 5.90671C52.4857 7.93377 53.8655 9.28014 56.0043 9.28014C57.2288 9.28014 58.2809 8.76103 58.7985 7.88755L61.1787 9.18493C60.1436 10.7881 58.212 11.8117 56.0043 11.8117C52.3648 11.8117 49.7262 9.24854 49.7262 5.90671C49.7262 2.56488 52.3648 0.00488281 56.0043 0.00488281ZM21.9946 0.229673V2.72923H16.9927V4.44775H18.89C21.3565 4.44775 23.0297 5.85772 23.0297 8.01436C23.0297 10.1738 21.3565 11.5837 18.89 11.5837H14.2331V0.229673H21.9946ZM48.6997 0.229673V2.72923H43.9566V4.60933H48.2684V7.07451H43.9566V9.08696H48.786V11.5837H41.1971V0.229673H48.6997ZM70.5668 0.229673V2.72923H67.4623V11.5837H64.7027V2.72923H61.5982V0.229673H70.5668ZM89.778 0.229673V2.72923H85.0349V4.60933H89.3467V7.07451H85.0349V9.08696H89.8643V11.5837H82.2754V0.229673H89.778ZM94.2537 0.229673V4.57772H98.0483V0.229673H100.808V11.5837H98.0483V7.07451H94.2537V11.5837H91.4942V0.229673H94.2537ZM105.712 0.229673V4.57772H109.506V0.229673H112.266V11.5837H109.506V7.07451H105.712V11.5837H102.952V0.229673H105.712ZM120.913 0.229673L125.018 11.5837H121.999L121.396 9.79886H116.911L116.308 11.5837H113.29L117.394 0.229673H120.913ZM134.924 0.229673V11.5837H132.164V7.85278H131.284L128.715 11.5837H125.61L128.439 7.53002C126.973 6.94454 125.955 5.59817 125.955 4.12182C125.955 1.96518 127.801 0.229673 130.095 0.229673H134.924ZM76.5779 0.229673C78.682 0.229673 80.3895 1.51283 80.3895 3.47629C80.3895 4.41614 79.9928 5.16004 79.3374 5.69614C80.2343 6.23264 80.8208 7.10888 80.8208 8.2593C80.8208 10.269 79.0786 11.5837 76.9229 11.5837H71.8521V0.229673H76.5779ZM6.41577 2.53328C4.44952 2.53328 2.89723 3.87965 2.89723 5.90671C2.89723 7.93377 4.44952 9.28014 6.41577 9.28014C8.38045 9.28014 9.93274 7.93377 9.93274 5.90671C9.93274 3.87965 8.38045 2.53328 6.41577 2.53328ZM18.89 6.88133H16.9927V9.15017H18.89C19.649 9.15017 20.2698 8.84162 20.2698 8.01436C20.2698 7.18987 19.649 6.88133 18.89 6.88133ZM76.9229 6.97654H74.6116V9.15017H76.9229C77.6126 9.15017 78.0612 8.69782 78.0612 8.06335C78.0612 7.43204 77.6126 6.97654 76.9229 6.97654ZM119.154 3.19935L117.739 7.36844H120.568L119.154 3.19935ZM132.164 2.66325H130.095C129.336 2.66325 128.715 3.29733 128.715 4.12182C128.715 4.94948 129.336 5.58394 130.095 5.58394H132.164V2.66325ZM76.5779 2.66325H74.6116V4.6757H76.5779C77.1986 4.6757 77.6299 4.25456 77.6299 3.66948C77.6299 3.08399 77.216 2.66325 76.5779 2.66325Z" fill="#000"/>
    <path d="M22.8801 25.2302C24.122 25.4092 24.881 25.0517 24.881 23.1546V16.3125H33.2286V27.6638H30.469V18.8093H27.6406V23.0594C27.6406 27.1131 25.1052 27.8914 22.8801 27.6638V25.2302Z" fill="#000"/>
    <path d="M17.3779 56.7148L19.3098 60.1807L20.9941 56.7148H21.4687L19.5025 60.7369C19.0077 61.7546 18.4819 61.9999 17.9242 61.9999C17.7174 61.9999 17.4874 61.9711 17.2802 61.9106V61.4954C17.444 61.5413 17.6512 61.5847 17.8525 61.5847C18.2806 61.5847 18.6284 61.4346 18.9849 60.7831L19.0739 60.5959L16.8863 56.7148H17.3779ZM3.41319 56.6342C5.2211 56.6342 6.11088 57.9952 6.11088 59.3186C6.11088 60.6417 5.2211 61.9999 3.41319 61.9999C1.60488 61.9999 0.716674 60.6417 0.716674 59.3186C0.716674 57.9952 1.60488 56.6342 3.41319 56.6342ZM25.7459 56.7148V57.1387H22.8024V61.9189H22.3656V56.7148H25.7459ZM12.4622 56.7148H14.1669C15.3458 56.7148 16.3546 57.0869 16.3546 58.3669C16.3546 59.6529 15.3458 60.025 14.1669 60.025H12.8994V61.9189H12.4622V56.7148ZM28.1493 56.7148L30.4547 61.9189H29.9805L29.3652 60.5208H26.4387L25.8148 61.9189H25.3406L27.6546 56.7148H28.1493ZM7.81402 56.7148V59.0504H9.16819L10.8442 56.7148H11.3471L9.53332 59.2491L11.5252 61.9189H11.0135L9.18552 59.4656H7.81402V61.9189H7.37563V56.7148H7.81402ZM3.41319 57.0494C1.89399 57.0494 1.16097 58.1884 1.16097 59.3186C1.16097 60.4485 1.89399 61.5847 3.41319 61.5847C4.93239 61.5847 5.66698 60.4485 5.66698 59.3186C5.66698 58.1884 4.93239 57.0494 3.41319 57.0494ZM27.8992 57.1703C27.876 57.2224 27.8531 57.2742 27.833 57.3319L26.6085 60.1056H29.1868L27.9654 57.3319C27.9422 57.2742 27.9221 57.2224 27.8992 57.1703ZM14.2727 57.1393L12.9081 57.1387V59.6011H14.1902C15.1245 59.6011 15.9091 59.3475 15.9091 58.3669C15.9091 57.4125 15.1751 57.1537 14.2727 57.1393ZM30.5378 46.9465C32.3461 46.9465 33.2371 48.3075 33.2371 49.6309C33.2371 50.9544 32.3461 52.3122 30.5378 52.3122C28.7299 52.3122 27.8417 50.9544 27.8417 49.6309C27.8417 48.3075 28.7299 46.9465 30.5378 46.9465ZM18.3728 46.9465C20.1807 46.9465 21.0717 48.3075 21.0717 49.6309C21.0717 50.9544 20.1807 52.3122 18.3728 52.3122C16.5645 52.3122 15.6763 50.9544 15.6763 49.6309C15.6763 48.3075 16.5645 46.9465 18.3728 46.9465ZM59.9336 46.9465C61.7419 46.9465 62.6329 48.3075 62.6329 49.6309C62.6329 50.9544 61.7419 52.3122 59.9336 52.3122C58.1257 52.3122 57.2375 50.9544 57.2375 49.6309C57.2375 48.3075 58.1257 46.9465 59.9336 46.9465ZM49.571 46.9465C51.3789 46.9465 52.2698 48.3075 52.2698 49.6309C52.2698 50.9544 51.3789 52.3122 49.571 52.3122C47.7627 52.3122 46.8745 50.9544 46.8745 49.6309C46.8745 48.3075 47.7627 46.9465 49.571 46.9465ZM41.8064 47.0271V49.4058H45.1725V47.0271H45.6097V52.2316H45.1725V49.8297H41.8064V52.2316H41.3696V47.0271H41.8064ZM34.8729 47.0271L37.1267 50.3661L39.3718 47.0271H39.7425V52.2316H39.3056V47.8749L37.2586 50.9082H36.9857L34.9391 47.8749V52.2316H34.5023V47.0271H34.8729ZM22.7736 47.0271V49.4058H26.1398V47.0271H26.5766V52.2316H26.1398V49.8297H22.7736V52.2316H22.3368V47.0271H22.7736ZM15.3313 47.0271V47.451H13.4339V52.2316H12.9971V47.451H11.0998V47.0271H15.3313ZM3.25091 47.0271L5.5563 52.2316H5.08167L4.46682 50.8331H1.5387L0.916372 52.2316H0.442139L2.75344 47.0271H3.25091ZM56.9153 47.0271V47.451H53.9718V52.2316H53.535V47.0271H56.9153ZM8.57303 47.0271C9.61643 47.0271 10.3294 47.4455 10.3294 48.3363C10.3294 49.0281 9.86969 49.3915 9.39506 49.4954C9.87796 49.5989 10.5279 49.9276 10.5365 50.8189C10.5279 52.0238 9.36631 52.2316 8.58761 52.2316H6.55636V47.0271H8.57303ZM18.3728 47.3617C16.8548 47.3617 16.119 48.5007 16.119 49.6309C16.119 50.7612 16.8548 51.897 18.3728 51.897C19.8932 51.897 20.6262 50.7612 20.6262 49.6309C20.6262 48.5007 19.8932 47.3617 18.3728 47.3617ZM30.5378 47.3617C29.0202 47.3617 28.2844 48.5007 28.2844 49.6309C28.2844 50.7612 29.0202 51.897 30.5378 51.897C32.0586 51.897 32.7916 50.7612 32.7916 49.6309C32.7916 48.5007 32.0586 47.3617 30.5378 47.3617ZM49.571 47.3617C48.053 47.3617 47.3172 48.5007 47.3172 49.6309C47.3172 50.7612 48.053 51.897 49.571 51.897C51.0914 51.897 51.8244 50.7612 51.8244 49.6309C51.8244 48.5007 51.0914 47.3617 49.571 47.3617ZM59.9336 47.3617C58.416 47.3617 57.6802 48.5007 57.6802 49.6309C57.6802 50.7612 58.416 51.897 59.9336 51.897C61.4544 51.897 62.1874 50.7612 62.1874 49.6309C62.1874 48.5007 61.4544 47.3617 59.9336 47.3617ZM8.76927 49.7348L7.00223 49.7344V51.8077H8.50686C9.21703 51.8077 10.0907 51.7327 10.0907 50.7754C10.0907 49.8818 9.29222 49.7426 8.76927 49.7348ZM2.99922 47.483L2.93147 47.6442L1.70847 50.4179H4.28839L3.06539 47.6442C3.04373 47.5865 3.02088 47.5347 2.99922 47.483ZM8.54428 47.451H7.00223V49.3165H8.75698C9.34347 49.3165 9.88387 49.0656 9.88387 48.3968C9.88387 47.6963 9.35765 47.451 8.54428 47.451ZM56.1968 37.3398V42.12H59.4594V37.3398H59.9021V42.12H60.5402V43.8065H60.1179L60.1262 42.5439H55.7596V37.3398H56.1968ZM26.7321 37.2588C28.5401 37.2588 29.4314 38.6198 29.4314 39.9432C29.4314 41.2667 28.5401 42.6245 26.7321 42.6245C24.9238 42.6245 24.0356 41.2667 24.0356 39.9432C24.0356 38.6198 24.9238 37.2588 26.7321 37.2588ZM68.8767 37.2588C70.685 37.2588 71.576 38.6198 71.576 39.9432C71.576 41.2667 70.685 42.6245 68.8767 42.6245C67.0684 42.6245 66.1802 41.2667 66.1802 39.9432C66.1802 38.6198 67.0684 37.2588 68.8767 37.2588ZM79.2397 37.2588C81.0476 37.2588 81.939 38.6198 81.939 39.9432C81.939 41.2667 81.0476 42.6245 79.2397 42.6245C77.4314 42.6245 76.5432 41.2667 76.5432 39.9432C76.5432 38.6198 77.4314 37.2588 79.2397 37.2588ZM22.7677 37.3398V42.5439H22.3309V37.7633H20.1291L20.0748 38.4001C19.8782 40.6314 19.6031 42.611 18.4157 42.619C18.2921 42.619 18.1514 42.5957 18.0018 42.5439V42.12C18.114 42.1662 18.209 42.1805 18.3496 42.1805C19.3441 42.1805 19.5225 39.7789 19.7065 37.3398H22.7677ZM6.69737 37.3398L8.94958 40.6784L11.1947 37.3398H11.5654V42.5439H11.1285V38.1872L9.08469 41.2205H8.80897L6.76354 38.1872V42.5439H6.32673V37.3398H6.69737ZM54.4232 37.3398V37.7633H51.4136V39.7125H54.2018V40.1364H51.4136V42.12H54.4748V42.5439H50.9763V37.3398H54.4232ZM4.69527 37.3398V42.5439H4.25846V40.5892H2.65693L1.13773 42.5439H0.604812L2.16852 40.5283C1.391 40.3584 0.813175 39.8539 0.813175 38.9599C0.813175 37.853 1.72422 37.3398 2.77628 37.3398H4.69527ZM34.8957 37.3398V39.7184H38.2622V37.3398H38.6991V42.5439H38.2622V40.1419H34.8957V42.5439H34.4589V37.3398H34.8957ZM15.3628 37.3398L17.6681 42.5439H17.1939L16.5787 41.1454H13.6525L13.0286 42.5439H12.5544L14.8684 37.3398H15.3628ZM76.2214 37.3398V37.7633H73.2779V42.5439H72.8407V37.3398H76.2214ZM43.7726 37.3398V37.7633H40.763V39.7125H43.5513V40.1364H40.763V42.12H43.8242V42.5439H40.3262V37.3398H43.7726ZM62.1244 37.3398V39.675H63.4809L65.1569 37.3398H65.6599L63.8433 39.8741L65.8383 42.5439H65.3266L63.4955 40.0902H62.1244V42.5439H61.6872V37.3398H62.1244ZM45.5463 37.3398V39.7184H48.9124V37.3398H49.3496V42.5439H48.9124V40.1419H45.5463V42.5439H45.1095V37.3398H45.5463ZM79.2397 37.674C77.7217 37.674 76.9859 38.813 76.9859 39.9432C76.9859 41.0735 77.7217 42.2093 79.2397 42.2093C80.7605 42.2093 81.4935 41.0735 81.4935 39.9432C81.4935 38.813 80.7605 37.674 79.2397 37.674ZM68.8767 37.674C67.3591 37.674 66.6229 38.813 66.6229 39.9432C66.6229 41.0735 67.3591 42.2093 68.8767 42.2093C70.3975 42.2093 71.1305 41.0735 71.1305 39.9432C71.1305 38.813 70.3975 37.674 68.8767 37.674ZM26.7322 37.674C25.2141 37.674 24.4784 38.813 24.4784 39.9432C24.4784 41.0735 25.2141 42.2093 26.7322 42.2093C28.2525 42.2093 28.9855 41.0735 28.9855 39.9432C28.9855 38.813 28.2525 37.674 26.7322 37.674ZM15.1126 37.7953C15.0898 37.847 15.067 37.8988 15.0469 37.9565L13.8223 40.7302H16.4006L15.1788 37.9565C15.156 37.8988 15.1359 37.847 15.1126 37.7953ZM4.25097 37.7633H2.75344C1.92392 37.7633 1.26417 38.1441 1.26417 38.9599C1.26417 39.7876 1.92392 40.1653 2.75344 40.1653H4.25097V37.7633ZM33.0906 39.7414V40.1419H30.489V39.7414H33.0906Z" fill="#232323"/>
  </symbol>
  <symbol id="dropdown-arrow" viewBox="0 0 24 24">
    <path d="M6.34326 11L7.75748 9.58569L12 13.8283L16.2428 9.58569L17.657 11L12 16.6568L6.34326 11Z"/>
  </symbol>
  <symbol id="dropdown-triangle" viewBox="0 0 24 24">
    <path d="M8 10h8l-4 4z"/>
  </symbol>
  <symbol id="photo-album" viewBox="0 0 40 40">
    <circle fill="#fff" stroke="none" cx="20" cy="20" r="20"/>
    <rect fill="none" stroke-width="2" x="12" y="14" width="16" height="12" rx="1"/>
    <path d="M23 19l4 4v3H12v-5l6 3 5-5zm-6-3a2 2 0 1 1 0 4 2 2 0 0 1 0-4z" stroke="none"/>
  </symbol>
  <symbol id="video-album" viewBox="0 0 40 40">
    <circle fill="#fff" stroke="none" cx="20" cy="20" r="20"/>
    <path fill-rule="evenodd" clip-rule="evenodd" d="M15 13.7232C15 12.9554 15.8295 12.474 16.4961 12.8549L27.4806 19.1318C28.1524 19.5157 28.1524 20.4843 27.4806 20.8682L16.4961 27.1451C15.8295 27.526 15 27.0446 15 26.2768V13.7232Z"/>
  </symbol>
  <symbol id="social-youtube" viewBox="0 0 40 40">
    <path d="M20 40C31.0457 40 40 31.0457 40 20C40 8.9543 31.0457 0 20 0C8.9543 0 0 8.9543 0 20C0 31.0457 8.9543 40 20 40Z"/>
    <path d="M17.7488 22.9864V16.935L23.374 19.9612L17.7488 22.9864ZM28.8464 16.8128C28.7463 15.6889 28.0318 14.272 26.5636 14.2212C22.4638 13.9626 17.6068 13.892 13.4329 14.2212C12.138 14.3574 11.2502 15.8368 11.1536 16.9605C10.9488 19.3208 10.9488 20.6641 11.1536 23.0244C11.2515 24.1481 12.1165 25.6359 13.4352 25.792C17.6587 26.0506 22.492 26.0875 26.5658 25.792C27.8439 25.5842 28.7496 24.1481 28.8474 23.0244C29.051 20.663 29.051 19.1731 28.8464 16.8128Z" fill="#fff"/>
  </symbol>
  <symbol id="social-facebook" viewBox="0 0 40 40">
    <path d="M20 40C31.0457 40 40 31.0457 40 20C40 8.9543 31.0457 0 20 0C8.9543 0 0 8.9543 0 20C0 31.0457 8.9543 40 20 40Z"/>
    <path d="M22.7364 13.0027L21.0573 13C19.1712 13 17.9526 14.3525 17.9526 16.4455V18.0343H16.2645C16.1184 18.0343 16 18.1616 16 18.3194V20.6216C16 20.7787 16.1184 20.9067 16.2645 20.9067H17.9526V26.7149C17.9526 26.872 18.0703 27 18.2163 27H20.4187C20.5649 27 20.6825 26.872 20.6825 26.7149V20.9067H22.656C22.802 20.9067 22.9205 20.7787 22.9205 20.6216L22.9212 18.3194C22.9212 18.244 22.8936 18.1716 22.8436 18.1175C22.7943 18.0642 22.7271 18.0343 22.6567 18.0343H20.6825V16.6874C20.6825 16.0402 20.8251 15.7116 21.6052 15.7116L22.7357 15.7109C22.8816 15.7109 23 15.5829 23 15.4258V13.2887C23 13.1307 22.8816 13.0035 22.7364 13.0027Z" fill="#fff"/>
  </symbol>
  <symbol id="social-vkontakte" viewBox="0 0 40 40">
    <path d="M20 40C31.0457 40 40 31.0457 40 20C40 8.9543 31.0457 0 20 0C8.9543 0 0 8.9543 0 20C0 31.0457 8.9543 40 20 40Z"/>
    <path d="M28.5641 15.7448C28.6961 15.3155 28.5641 15 27.9354 15H25.8568C25.3283 15 25.0846 15.2725 24.9525 15.573C24.9525 15.573 23.8955 18.0848 22.398 19.7162C21.9136 20.1885 21.6934 20.3388 21.4291 20.3388C21.2969 20.3388 21.1057 20.1885 21.1057 19.7592V15.7448C21.1057 15.2296 20.9523 15 20.5118 15H17.2454C16.9151 15 16.7164 15.2391 16.7164 15.4658C16.7164 15.9541 17.4652 16.0669 17.5424 17.4407V20.4247C17.5424 21.0789 17.4212 21.1976 17.157 21.1976C16.4523 21.1976 14.7382 18.6746 13.7216 15.7878C13.5224 15.2267 13.3225 15 12.7913 15H10.7127C10.1188 15 10 15.2725 10 15.573C10 16.1097 10.7046 18.7717 13.2811 22.2924C14.9988 24.6966 17.4189 26 19.621 26C20.9422 26 21.1057 25.7105 21.1057 25.2119V23.3947C21.1057 22.8158 21.2309 22.7003 21.6493 22.7003C21.9575 22.7003 22.4861 22.8505 23.7193 24.0097C25.1287 25.3837 25.3611 26 26.1538 26H28.2324C28.8263 26 29.1232 25.7105 28.9519 25.1392C28.7645 24.5699 28.0915 23.7438 27.1987 22.7647C26.7143 22.2064 25.9875 21.6055 25.7673 21.3049C25.4589 20.9184 25.5471 20.7466 25.7673 20.4032C25.7673 20.4032 28.2998 16.9256 28.5641 15.7448Z" fill="#fff"/>
  </symbol>
  <symbol id="close-button" viewBox="0 0 40 40">
    <path d="M20 40C31.0457 40 40 31.0457 40 20C40 8.9543 31.0457 0 20 0C8.9543 0 0 8.9543 0 20C0 31.0457 8.9543 40 20 40Z"/>
    <path d="M20 18.5738L24.5738 14L26 15.4262L21.4262 20L26 24.5738L24.5738 26L20 21.4262L15.4262 26L14 24.5738L18.5738 20L14 15.4262L15.4262 14L20 18.5738Z" fill="#333333"/>
  </symbol>
  <symbol id="makeagency-logotype" viewBox="0 0 32 32">
    <path d="M16 32C24.8366 32 32 24.8366 32 16C32 7.16344 24.8366 0 16 0C7.16344 0 0 7.16344 0 16C0 24.8366 7.16344 32 16 32Z"/>
    <path fill-rule="evenodd" clip-rule="evenodd" d="M18.0149 18.3168H16.7368L18.3824 20.2623H17.4474L15.0016 17.5449H15.6347H17.2782C19.3458 17.5449 21.0209 15.9256 21.0209 13.9405C21.0209 13.0857 20.7094 12.2926 20.19 11.676C19.5641 10.7448 20.2869 10.0622 20.9286 10.0622C20.7659 9.33511 19.8771 9.28069 19.8771 9.28069C19.778 8.9943 19.5265 8.57129 19.0382 8.57129H17.7614C17.7446 8.57129 17.7282 8.57378 17.7121 8.57623L17.7121 8.57623C17.6984 8.57829 17.6851 8.58033 17.6718 8.58079C17.0439 8.64795 16.4351 9.10628 17.0433 10.0091L17.0436 10.0094C17.0591 10.031 17.9131 11.2163 17.9131 12.435C17.9131 14.5133 16.1595 16.3388 13.9948 16.3388H10.0089H9.24023H5.14282C5.14282 17.0142 5.67453 17.5449 6.33055 17.5449H8.91627H13.7677L16.0615 20.2623H8.91627V22.2701H23.8468V20.2623H19.7691L18.0149 18.3168ZM16.2372 14.7807C16.8646 14.1494 17.2245 13.2964 17.2245 12.4435C17.2245 11.415 16.466 10.3496 16.4582 10.339L16.4536 10.3312L16.4485 10.3227C16.2797 10.0737 16.1841 9.85405 16.1386 9.65277L10.4285 15.7812H13.8892C14.7657 15.7812 15.5996 15.4223 16.2372 14.7807ZM6.27548 22.2701H8.16323V20.2424H6.27548V22.2701ZM24.6588 22.2856V20.2584L26.2857 21.2282L24.6588 22.2856ZM18.4749 9.90512C18.6617 9.90512 18.8129 9.75995 18.8129 9.58072C18.8129 9.40149 18.6617 9.25627 18.4749 9.25627C18.2882 9.25627 18.1369 9.40149 18.1369 9.58072C18.1369 9.75995 18.2882 9.90512 18.4749 9.90512Z" fill="#fff"/>
  </symbol>
  <symbol id="paper" viewBox="0 0 34 42">
    <path d="M0 2C0 0.89543 0.895431 0 2 0H24L34 11V40C34 41.1046 33.1046 42 32 42H2C0.89543 42 0 41.1046 0 40L0 2Z"/>
    <path d="M24 0L34 11V13H23C22.4477 13 22 12.5523 22 12L22 0H24Z" fill="#d9d9de"/>
    <rect x="8" y="24" width="14" height="2" rx="1" fill="#333"/>
    <rect x="8" y="32" width="8" height="2" rx="1" fill="#333"/>
  </symbol>
  <symbol id="phone" viewBox="0 0 40 40">
    <path d="M20 40c11.046 0 20-8.954 20-20S31.046 0 20 0 0 8.954 0 20s8.954 20 20 20z"/>
    <path d="M27.641 24.655l-2.47-2.477c-.493-.491-1.308-.476-1.817.034L22.11 23.46a22.36 22.36 0 0 1-.245-.137c-.787-.437-1.862-1.034-2.995-2.17-1.136-1.138-1.734-2.219-2.17-3.008-.047-.082-.091-.162-.134-.24l.835-.836.411-.412c.51-.512.525-1.328.034-1.82l-2.472-2.477c-.49-.493-1.306-.478-1.817.034l-.695.701.018.02a4.051 4.051 0 0 0-.573 1.014 4.179 4.179 0 0 0-.255 1.029c-.328 2.711.91 5.188 4.263 8.551 4.637 4.646 8.375 4.297 8.536 4.278.35-.041.687-.125 1.03-.258.367-.144.71-.339 1.008-.573l.015.014.706-.693c.508-.512.523-1.328.032-1.822z" fill="#333"/>
  </symbol>
  <symbol id="default-avatar" viewBox="0 0 40 40">
    <circle cx="20" cy="20" r="20" fill="#e5e5eb"/>
    <path d="M20.136 28c4.916 0 9.553 1.237 13.637 3.427C30.503 35.447 25.608 38 20.136 38 14.665 38 9.77 35.446 6.5 31.427A28.756 28.756 0 0 1 20.136 28zm0-17.273a7.273 7.273 0 1 1 0 14.546 7.273 7.273 0 0 1 0-14.546z" fill="#fff" fill-rule="evenodd"/>
  </symbol>
  <symbol id="notification-success" viewBox="0 0 32 32">
    <circle r="14" cy="16" cx="16" fill="#fff"/>
    <path d="M14.9 21L10 16.333 11.4 15l3.5 3.333L21.6 12l1.4 1.333z" fill="#333"/>
  </symbol>
  <symbol id="cross" viewBox="0 0 24 24">
    <path d="M12 10.574L16.574 6 18 7.426 13.426 12 18 16.574 16.574 18 12 13.426 7.426 18 6 16.574 10.574 12 6 7.426 7.426 6z"/>
  </symbol>
  <symbol id="logotype-ckk-symbol" viewBox="0 0 131.26 145.24">
    <defs><style>.cls-1{fill:#fff;fill-rule:evenodd;}</style></defs>
    <path class="cls-1" d="M124.44,72.18h-7.51q-.56-1.52-1.23-3l5.3-5.3a6.82,6.82,0,0,0,0-9.63l0,0-13-13a6.84,6.84,0,0,0-9.66,0L93,46.56q-1.5-.66-3-1.23v-7.5A6.82,6.82,0,0,0,83.24,31H72.58L25.24.36A2.15,2.15,0,0,0,23,.27,2.18,2.18,0,0,0,21.83,2.2V29.86H6.57A6.59,6.59,0,0,0,0,36.44V138.66a6.59,6.59,0,0,0,6.58,6.58H83.24a6.82,6.82,0,0,0,6.82-6.82h0V130.9q1.5-.56,3-1.23l5.3,5.3a6.83,6.83,0,0,0,9.66,0h0l13-13a6.82,6.82,0,0,0,0-9.63l0,0L115.7,107q.67-1.5,1.23-3h7.51a6.82,6.82,0,0,0,6.82-6.82h0V79A6.82,6.82,0,0,0,124.44,72.18ZM9.21,136.07v-97H21.83v72.66a6.4,6.4,0,0,0,3,5.52l29,18.82Zm54.12-100V131.3L31,110.3V15.12l32.37,21ZM72.58,69.8H74.1a18.32,18.32,0,1,1,0,36.64H72.58ZM122.16,95H113.6a4.54,4.54,0,0,0-4.37,3.29,35.55,35.55,0,0,1-3.08,7.5,4.55,4.55,0,0,0,.77,5.4l6,6L103.19,127l-6-6a4.56,4.56,0,0,0-5.4-.77,36.34,36.34,0,0,1-7.5,3.09,4.54,4.54,0,0,0-3.29,4.3v8.54H72.58V115.52H74.1a27.4,27.4,0,1,0,0-54.8H72.58V40.08H81v8.53A4.52,4.52,0,0,0,84.27,53a37,37,0,0,1,7.51,3.08,4.53,4.53,0,0,0,5.4-.76l6-6L112.94,59l-6,6a4.56,4.56,0,0,0-.76,5.41,37.05,37.05,0,0,1,3.09,7.49,4.52,4.52,0,0,0,4.36,3.29h8.53Z"/>
    <polygon class="cls-1" points="57.18 45.06 39.22 33.41 39.22 48.09 57.18 59.74 57.18 45.06"/>
    <polygon class="cls-1" points="57.18 72.06 39.22 60.41 39.22 75.09 57.18 86.74 57.18 72.06"/>
    <polygon class="cls-1" points="57.18 99.06 39.22 87.4 39.22 102.09 57.18 113.74 57.18 99.06"/>
  </symbol>
  <symbol id="logotype-ckk-text" viewBox="0 0 211.74 115.4">
    <defs><style>.cls-1{fill:#fff;fill-rule:evenodd;}</style></defs>
    <path class="cls-1" d="M0,30.74H12.68v4.13h4.69V26.44H15.32V0h-5V26.35H4.83V0H0V30.74ZM26.13,4.4h8.34V0H21.32V30.74H34.49V26.35H26.15v-9h6.63V13H26.15V4.4ZM43.58,17.57h5.48V30.74H54V0H49.06V13.15H43.58V0H38.75V30.74h4.83ZM57.38,4.4h5V30.74h4.83V4.4h5.06V0H57.38V4.4ZM82.82,0H75.71V30.74h4.83V19.2h2.28c4.83,0,7.2-2.68,7.2-7.6v-4C90,2.68,87.65,0,82.82,0Zm0,4.39c1.54,0,2.37.71,2.37,2.9v4.61c0,2.2-.83,2.9-2.37,2.9H80.54V4.4ZM11.05,72.89h5l-6.71-17L16,42.15H11.18L4.86,55.55V42.15H0V72.88H4.86V63.45l1.46-2.81L11,72.89ZM23.93,49.23c0-2.2,1-3,2.51-3s2.5.83,2.5,3V65.82c0,2.2-1,3-2.5,3s-2.51-.83-2.51-3ZM19.1,65.51c0,4.92,2.59,7.73,7.34,7.73s7.33-2.81,7.33-7.73v-16c0-4.91-2.59-7.72-7.33-7.72S19.1,44.6,19.1,49.51ZM44.85,42.15H38.13V72.88h4.19V51.15l3.6,21.73h4.56l3.34-22v22h4.57V42.15H51.67L48.38,64Zm23.2,4.39h5.49V72.88h4.91V42.15H63.22V72.88h4.83V46.55Zm20,0h8.34V42.15H83.26V72.88H96.43V68.5H88.09v-9h6.63V55.15H88.09v-8.6Zm11.21,0h5.06V72.88h4.83V46.55h5v-4.4H99.32v4.4Zm23.16,0h8.34V42.15H117.63V72.88H130.8V68.5h-8.34v-9h6.63V55.15h-6.63v-8.6Zm17.45,13.17h5.48V72.88h5V42.15H145.4V55.33h-5.48V42.15h-4.83V72.88h4.83V59.72Zm15.2,13.17h12.65V77h4.69V68.59h-2.09V42.15H165.4V68.5h-5.49V42.15h-4.83V72.88Zm30.27-14.09,2-7.55V72.88h4.34V42.15h-5.31l-3.93,12.7-1.76,6.76V42.15h-4.3V72.88h5l4-14.09Zm16,14.09h-5V42.15h4.3V61.61l1.76-6.76,4-12.7h5.31V72.88h-4.35V51.25l-2,7.55-4,14.09Zm5-37.58c-.13,1.62-.88,2-2.19,2s-1.94-.4-2.07-2h-3c.09,3,1.67,4.87,5,4.87s5.19-1.87,5.19-4.86ZM11.05,115h5L9.34,98l6.71-13.7H11.22L4.9,97.72V84.3H.07V115H4.9v-9.44l1.49-2.8L11.09,115ZM35.39,84.3h-5L28.2,94.84,27.06,102l-1.5-7.2L22.93,84.3H18.14L24.82,108v.26c-.39,2.24-1.8,2.68-4.25,2.51v4.3c6.71.44,8.6-2.33,9.74-7.86L35.49,84.3ZM48,93.57c0,2.45-1.1,3.24-2.9,3.24H43.66v4.39h1.19c2.19,0,3.16,1.06,3.16,3.91v2.42c0,2.72-1,3.46-2.5,3.46s-2.5-.83-2.5-3V104.3H38.44v3.38c0,4.91,2.46,7.72,7.2,7.72s7.2-2.81,7.2-7.72v-2.42c0-3.11-1-5.4-3.38-6.45,2.33-1,3.38-3,3.38-6.32V91.7c0-4.92-2.46-7.73-7.2-7.73s-7.11,2.72-7.11,7.64v2.28H43v-2.5c0-2.19,1-3,2.55-3s2.5.75,2.5,3.51v1.67ZM65.06,115c4.83,0,7.29-2.67,7.29-7.59v-3.29c0-4.92-2.46-7.6-7.29-7.6H62.25V88.69H71V84.3H57.43V115Zm-2.81-4.39v-9.7h2.81c1.54,0,2.46.7,2.46,2.9v3.91c0,2.19-.92,2.89-2.46,2.89ZM87.6,84.3H80.54L75.62,115h4.43l.84-5.57h5.92l.84,5.57h4.87L87.6,84.3Zm-3.77,5.45,2.33,15.54H81.5Zm21.66,13.83V108c0,2.19-1,3-2.5,3s-2.5-.79-2.5-3V91.37c0-2.19,1-3,2.5-3s2.5.84,2.5,3v3.29h4.57v-3c0-4.92-2.46-7.73-7.2-7.73s-7.2,2.81-7.2,7.73v16c0,4.91,2.46,7.72,7.2,7.72s7.2-2.81,7.2-7.72v-4.08Zm18.24,0V108c0,2.19-1,3-2.5,3s-2.5-.79-2.5-3V91.37c0-2.19,1-3,2.5-3s2.5.84,2.5,3v3.29h4.59v-3c0-4.92-2.46-7.73-7.2-7.73s-7.2,2.81-7.2,7.73v16c0,4.91,2.45,7.72,7.2,7.72s7.2-2.81,7.2-7.72v-4.08ZM143.24,84.3h-7.07L131.26,115h4.43l.83-5.57h5.93l.83,5.57h4.88L143.24,84.3Zm-3.77,5.45,2.32,15.54h-4.65Z"/>
  </symbol>
  <symbol id="logotype-ckk-long-text" viewBox="0 0 254 24">
    <path fill-rule="evenodd" clip-rule="evenodd" d="M164.804 2.1886C164.264 2.65285 163.438 2.88497 162.325 2.88497C161.212 2.88497 160.386 2.65285 159.846 2.1886C159.306 1.72435 158.978 0.994819 158.862 0H160.98C160.996 0.0994819 161.013 0.219689 161.029 0.360622C161.046 0.501554 161.1 0.642487 161.191 0.78342C161.283 0.924352 161.416 1.04456 161.59 1.14404C161.764 1.24352 162.009 1.29326 162.325 1.29326C162.64 1.29326 162.885 1.24352 163.06 1.14404C163.234 1.04456 163.367 0.924352 163.458 0.78342C163.55 0.642487 163.604 0.501554 163.62 0.360622C163.637 0.219689 163.653 0.0994819 163.67 0H165.788C165.671 0.994819 165.343 1.72435 164.804 2.1886ZM69.7155 21.1399C69.2089 21.3223 68.6982 21.4135 68.1834 21.4135C67.6686 21.4135 67.1579 21.3223 66.6513 21.1399C66.1448 20.9575 65.6922 20.6839 65.2936 20.3192C64.8784 19.971 64.5463 19.5316 64.2972 19.001C64.0481 18.4705 63.9235 17.8321 63.9235 17.086V7.73472C63.9235 7.02176 64.0481 6.39171 64.2972 5.84456C64.5463 5.29741 64.8784 4.84145 65.2936 4.47668C65.6922 4.1285 66.1448 3.86321 66.6513 3.68083C67.1579 3.49845 67.6686 3.40725 68.1834 3.40725C68.6982 3.40725 69.2089 3.49845 69.7155 3.68083C70.222 3.86321 70.6829 4.1285 71.0981 4.47668C71.4967 4.84145 71.8205 5.29741 72.0696 5.84456C72.3188 6.39171 72.4433 7.02176 72.4433 7.73472V17.086C72.4433 17.8321 72.3188 18.4705 72.0696 19.001C71.8205 19.5316 71.4967 19.971 71.0981 20.3192C70.6829 20.6839 70.222 20.9575 69.7155 21.1399ZM9.54119 19.0259V24H7.34896V21.2642H0V3.55648H2.541V19.0259H5.55532V3.55648H8.09631V19.0259H9.54119ZM18.4596 18.7275V21.2642H10.8864V3.55648H18.4596V5.94404H13.4274V11.142H17.8119V13.5295H13.4274V18.7275H18.4596ZM22.6448 21.2642V13.3803H25.7836V21.2642H28.3246V3.55648H25.7836V11.142H22.6448V3.55648H20.1038V21.2642H22.6448ZM34.9262 5.94404V21.2642H32.3853V5.94404H29.4457V3.55648H37.8658V5.94404H34.9262ZM41.5279 21.2642V14.3503H42.8233C43.7699 14.3503 44.5339 14.1886 45.1151 13.8653C45.6964 13.542 46.1614 13.0902 46.5102 12.5098C46.8091 12.029 47.0043 11.515 47.0956 10.9679C47.187 10.4207 47.2326 9.74922 47.2326 8.95337C47.2326 7.89223 47.1496 7.05078 46.9835 6.42902C46.8174 5.80725 46.5185 5.26425 46.0867 4.8C45.6549 4.33575 45.1733 4.01243 44.6418 3.83005C44.1104 3.64767 43.4959 3.55648 42.7984 3.55648H38.9869V21.2642H41.5279ZM41.5279 11.9627H42.7485C43.2634 11.9627 43.662 11.8881 43.9443 11.7389C44.2266 11.5896 44.4342 11.3824 44.5671 11.1171C44.6999 10.8684 44.7788 10.5617 44.8037 10.1969C44.8287 9.83212 44.8411 9.42591 44.8411 8.97824C44.8411 8.56373 44.8328 8.16995 44.8162 7.79689C44.7996 7.42383 44.7249 7.09637 44.592 6.81451C44.4591 6.53264 44.2598 6.3171 43.9941 6.16788C43.7284 6.01865 43.3464 5.94404 42.8482 5.94404H41.5279V11.9627ZM56.3005 21.2642V13.3803H57.7205L59.9625 21.2642H62.5534L59.9127 12.2611C60.0456 12.1617 60.1826 12.0249 60.3238 11.8508C60.4649 11.6767 60.5853 11.4736 60.685 11.2415C60.7514 11.1088 60.8012 10.9554 60.8344 10.7813C60.8677 10.6073 60.9009 10.4373 60.9341 10.2715C60.9673 10.0891 60.9922 9.89015 61.0088 9.67461L61.233 7.61036C61.2662 7.34508 61.3078 7.10466 61.3576 6.88912C61.4074 6.67357 61.4988 6.49119 61.6316 6.34197C61.7645 6.19275 61.9056 6.08912 62.0551 6.03109C62.2046 5.97306 62.3956 5.94404 62.6281 5.94404V3.55648C62.0136 3.55648 61.478 3.64352 61.0213 3.81762C60.5646 3.99171 60.1784 4.27772 59.8629 4.67565C59.6802 4.92435 59.5307 5.18964 59.4145 5.4715C59.2982 5.75337 59.2069 6.02694 59.1404 6.29223C59.074 6.55751 59.0283 6.79378 59.0034 7.00104C58.9785 7.20829 58.9578 7.34508 58.9412 7.4114L58.692 9.52539C58.6588 9.75751 58.6173 9.96891 58.5675 10.1596C58.5177 10.3503 58.4346 10.5202 58.3184 10.6694C58.2021 10.8187 58.0526 10.9347 57.8699 11.0176C57.6873 11.1005 57.4464 11.142 57.1475 11.142H56.3005V3.55648H53.7595V21.2642H56.3005ZM68.1834 18.8767C67.7184 18.8767 67.3156 18.7316 66.9752 18.4415C66.6347 18.1513 66.4645 17.6995 66.4645 17.086V7.73471C66.4645 7.12124 66.6347 6.66943 66.9752 6.37927C67.3156 6.08912 67.7184 5.94404 68.1834 5.94404C68.6484 5.94404 69.0512 6.08912 69.3916 6.37927C69.7321 6.66943 69.9023 7.12124 69.9023 7.73471V17.086C69.9023 17.6995 69.7321 18.1513 69.3916 18.4415C69.0512 18.7316 68.6484 18.8767 68.1834 18.8767ZM77.2264 10.4953V21.2642H74.6854V3.55648H77.1267L80.3902 12.9326H80.44L83.6785 3.55648H86.1448V21.2642H83.6038V10.4953H83.5539L81.0379 18.1057H79.7674L77.2762 10.4953H77.2264ZM91.0773 5.79482H94.0916V21.2642H96.6326V3.55648H88.5363V21.2642H91.0773V5.79482ZM106.597 18.7275V21.2642H99.0241V3.55648H106.597V5.94404H101.565V11.142H105.95V13.5295H101.565V18.7275H106.597ZM112.452 21.2642V5.94404H115.391V3.55648H106.971V5.94404H109.911V21.2642H112.452ZM124.085 18.7275V21.2642H116.512V3.55648H124.085V5.94404H119.053V11.142H123.438V13.5295H119.053V18.7275H124.085ZM128.27 21.2642V13.3803H131.409V21.2642H133.95V3.55648H131.409V11.142H128.27V3.55648H125.729V21.2642H128.27ZM145.883 19.0259V24H143.691V21.2642H136.342V3.55648H138.883V19.0259H141.897V3.55648H144.438V19.0259H145.883ZM149.769 21.2642L153.107 9.77409H153.157V21.2642H155.698V3.55648H153.157L149.819 15.0715H149.769V3.55648H147.228V21.2642H149.769ZM160.631 21.2642L163.969 9.77409H164.019V21.2642H166.56V3.55648H164.019L160.681 15.0715H160.631V3.55648H158.09V21.2642H160.631ZM176.126 13.3803V21.2642H173.585V3.55648H176.126V11.142H176.973C177.272 11.142 177.513 11.1005 177.695 11.0176C177.878 10.9347 178.028 10.8187 178.144 10.6694C178.26 10.5202 178.343 10.3503 178.393 10.1596C178.443 9.96891 178.484 9.75751 178.517 9.52539L178.767 7.4114C178.783 7.34508 178.804 7.20829 178.829 7.00104C178.854 6.79378 178.899 6.55751 178.966 6.29223C179.032 6.02694 179.124 5.75337 179.24 5.4715C179.356 5.18964 179.506 4.92435 179.688 4.67565C180.004 4.27772 180.39 3.99171 180.847 3.81762C181.303 3.64352 181.839 3.55648 182.454 3.55648V5.94404C182.221 5.94404 182.03 5.97306 181.881 6.03109C181.731 6.08912 181.59 6.19275 181.457 6.34197C181.324 6.49119 181.233 6.67357 181.183 6.88912C181.133 7.10466 181.092 7.34508 181.058 7.61036L180.834 9.67461C180.818 9.89015 180.793 10.0891 180.76 10.2715C180.726 10.4373 180.693 10.6073 180.66 10.7813C180.627 10.9554 180.577 11.1088 180.51 11.2415C180.411 11.4736 180.29 11.6767 180.149 11.8508C180.008 12.0249 179.871 12.1617 179.738 12.2611L182.379 21.2642H179.788L177.546 13.3803H176.126ZM184.372 21.4135C184.903 21.4135 185.389 21.3762 185.829 21.3016C186.269 21.2269 186.689 21.0238 187.087 20.6922C187.569 20.3109 187.942 19.8052 188.208 19.1751C188.474 18.5451 188.723 17.8238 188.955 17.0114L192.642 3.55648H189.952L188.084 11.8881H188.034L185.642 3.55648H182.952L186.788 15.6435L186.564 16.6135C186.431 17.144 186.286 17.5544 186.128 17.8446C185.97 18.1347 185.825 18.3461 185.692 18.4788C185.526 18.6446 185.293 18.7523 184.995 18.8021C184.696 18.8518 184.43 18.8767 184.197 18.8767H184.023V21.4135H184.372ZM199.805 20.9907C199.248 21.2725 198.563 21.4135 197.749 21.4135C197.135 21.4135 196.562 21.3057 196.03 21.0902C195.499 20.8746 195.042 20.5762 194.66 20.1948C194.278 19.8135 193.988 19.3244 193.788 18.7275C193.589 18.1306 193.489 17.5337 193.489 16.9368V16.2653H196.03L196.055 16.9617C196.055 17.1938 196.084 17.4218 196.143 17.6456C196.201 17.8694 196.296 18.0725 196.429 18.2549C196.562 18.4373 196.736 18.5865 196.952 18.7026C197.168 18.8187 197.442 18.8767 197.774 18.8767C198.522 18.8767 199.024 18.6404 199.281 18.1679C199.539 17.6953 199.668 17.0528 199.668 16.2404C199.668 15.7762 199.651 15.3409 199.618 14.9347C199.584 14.5285 199.501 14.2093 199.369 13.9772C199.07 13.4632 198.571 13.2062 197.874 13.2062H196.902V10.9679H197.949C198.264 10.9679 198.546 10.9098 198.796 10.7938C199.045 10.6777 199.244 10.4788 199.393 10.1969C199.526 9.93161 199.605 9.61658 199.63 9.25181C199.655 8.88705 199.668 8.56373 199.668 8.28187C199.668 7.98342 199.643 7.68912 199.593 7.39896C199.543 7.10881 199.452 6.85596 199.319 6.64041C199.186 6.44145 199.007 6.27565 198.783 6.14301C198.559 6.01036 198.272 5.94404 197.924 5.94404C197.608 5.94404 197.347 6.00207 197.139 6.11813C196.931 6.2342 196.761 6.38342 196.628 6.5658C196.479 6.76477 196.371 7.02176 196.304 7.33679C196.238 7.65181 196.205 7.95855 196.205 8.257V8.65492H193.664V8.03316C193.664 7.53575 193.768 6.97202 193.975 6.34197C194.183 5.71192 194.502 5.17306 194.934 4.72539C195.316 4.34404 195.748 4.02902 196.23 3.78031C196.711 3.53161 197.268 3.40725 197.899 3.40725C198.646 3.40725 199.29 3.53575 199.829 3.79275C200.369 4.04974 200.813 4.39378 201.162 4.82487C201.528 5.25596 201.793 5.76995 201.959 6.36684C202.125 6.96373 202.209 7.59378 202.209 8.257C202.209 8.5886 202.2 8.92435 202.184 9.26425C202.167 9.60415 202.105 9.94404 201.997 10.2839C201.889 10.6238 201.714 10.943 201.474 11.2415C201.233 11.5399 200.888 11.8135 200.44 12.0622C200.888 12.2446 201.233 12.4808 201.474 12.771C201.714 13.0611 201.889 13.3845 201.997 13.7409C202.105 14.0974 202.167 14.487 202.184 14.9098C202.2 15.3326 202.209 15.7679 202.209 16.2155C202.209 16.9617 202.13 17.658 201.972 18.3047C201.814 18.9513 201.553 19.4902 201.187 19.9212C200.822 20.3523 200.361 20.7088 199.805 20.9907ZM207.938 21.2642C209.599 21.2642 210.807 20.8497 211.563 20.0207C212.319 19.1917 212.696 17.9979 212.696 16.4394V15.4446C212.68 14.7979 212.622 14.2052 212.522 13.6663C212.422 13.1275 212.182 12.6259 211.8 12.1617C211.434 11.7306 210.957 11.399 210.367 11.1668C209.778 10.9347 209.043 10.8187 208.162 10.8187H207.166V5.94404H211.899V3.55648H204.625V21.2642H207.938ZM207.166 18.7275H208.113C208.627 18.7275 209.03 18.6528 209.321 18.5036C209.611 18.3544 209.832 18.1472 209.981 17.8819C210.13 17.6166 210.222 17.3016 210.255 16.9368C210.288 16.572 210.305 16.1741 210.305 15.743C210.305 15.2953 210.276 14.9016 210.218 14.5617C210.16 14.2218 210.047 13.944 209.881 13.7285C209.715 13.513 209.499 13.3471 209.234 13.2311C208.968 13.115 208.603 13.057 208.138 13.057H207.166V18.7275ZM216.084 21.2642L216.832 17.4591H220.294L221.042 21.2642H223.583L219.622 3.55648H217.504L213.543 21.2642H216.084ZM217.28 15.0715H219.821L218.576 8.65492H218.526L217.28 15.0715ZM228.864 21.4135C229.429 21.4135 229.956 21.3016 230.446 21.0777C230.936 20.8539 231.364 20.5513 231.729 20.1699C232.094 19.7886 232.381 19.3534 232.588 18.8642C232.796 18.3751 232.9 17.857 232.9 17.3098V16.2155H230.359V17.086C230.359 17.4342 230.309 17.7244 230.209 17.9565C230.11 18.1886 229.985 18.371 229.836 18.5036C229.67 18.6363 229.491 18.7316 229.3 18.7896C229.109 18.8477 228.93 18.8767 228.764 18.8767C228.183 18.8767 227.78 18.7026 227.556 18.3544C227.332 18.0062 227.22 17.5751 227.22 17.0611V8.00829C227.22 7.4114 227.324 6.91813 227.531 6.5285C227.739 6.13886 228.158 5.94404 228.789 5.94404C229.271 5.94404 229.653 6.12642 229.935 6.49119C230.218 6.85596 230.359 7.28705 230.359 7.78446V8.63005H232.9V7.63523C232.9 7.02176 232.796 6.45389 232.588 5.93161C232.381 5.40933 232.094 4.95751 231.729 4.57617C230.982 3.79689 230.01 3.40725 228.814 3.40725C228.2 3.40725 227.639 3.51088 227.133 3.71813C226.626 3.92539 226.19 4.2114 225.825 4.57617C225.459 4.94093 225.177 5.37202 224.978 5.86943C224.779 6.36684 224.679 6.9057 224.679 7.48601V17.2352C224.679 18.0477 224.808 18.715 225.065 19.2373C225.322 19.7596 225.65 20.1865 226.049 20.5181C226.448 20.8497 226.896 21.0819 227.394 21.2145C227.893 21.3472 228.382 21.4135 228.864 21.4135ZM240.585 21.0777C240.095 21.3016 239.568 21.4135 239.003 21.4135C238.521 21.4135 238.032 21.3472 237.533 21.2145C237.035 21.0819 236.587 20.8497 236.188 20.5181C235.79 20.1865 235.462 19.7596 235.204 19.2373C234.947 18.715 234.818 18.0477 234.818 17.2352V7.48601C234.818 6.9057 234.918 6.36684 235.117 5.86943C235.316 5.37202 235.599 4.94093 235.964 4.57617C236.329 4.2114 236.765 3.92539 237.272 3.71813C237.778 3.51088 238.339 3.40725 238.953 3.40725C240.149 3.40725 241.121 3.79689 241.868 4.57617C242.233 4.95751 242.52 5.40933 242.727 5.93161C242.935 6.45389 243.039 7.02176 243.039 7.63523V8.63005H240.498V7.78446C240.498 7.28705 240.357 6.85596 240.074 6.49119C239.792 6.12642 239.41 5.94404 238.928 5.94404C238.297 5.94404 237.878 6.13886 237.67 6.5285C237.463 6.91813 237.359 7.4114 237.359 8.00829V17.0611C237.359 17.5751 237.471 18.0062 237.695 18.3544C237.919 18.7026 238.322 18.8767 238.903 18.8767C239.07 18.8767 239.248 18.8477 239.439 18.7896C239.63 18.7316 239.809 18.6363 239.975 18.5036C240.124 18.371 240.249 18.1886 240.348 17.9565C240.448 17.7244 240.498 17.4342 240.498 17.086V16.2155H243.039V17.3098C243.039 17.857 242.935 18.3751 242.727 18.8642C242.52 19.3534 242.233 19.7886 241.868 20.1699C241.503 20.5513 241.075 20.8539 240.585 21.0777ZM246.502 21.2642L247.249 17.4591H250.712L251.459 21.2642H254L250.039 3.55648H247.922L243.961 21.2642H246.502ZM247.697 15.0715H250.238L248.993 8.65492H248.943L247.697 15.0715Z" />
    <symbol id="footer_logo" viewBox="0 0 373.23 85.81"><g id="Слой_2" data-name="Слой 2"><g id="Слой_1-2" data-name="Слой 1"><path class="cls-1" d="M90.67,46.51h11.69v3.82h4.34v-7.8h-2V18.09h-4.54V42.45H95.13V18.09H90.67V46.51Zm23.56-24.36h7.71V18.09H109.77V46.51h12.17V42.45h-7.71V34.13h6.13V30.07h-6.13V22.15ZM129.8,34.33h5.07V46.51h4.55V18.09h-4.55V30.27H129.8V18.09h-4.47V46.51h4.47V34.33ZM142,22.15h4.67V46.51h4.46V22.15h4.67V18.09H142v4.06Zm23-4.06h-6.58V46.51h4.47V35.83H165c4.46,0,6.65-2.47,6.65-7V25.12c0-4.55-2.19-7-6.65-7Zm0,4.06c1.42,0,2.19.65,2.19,2.68v4.26c0,2-.77,2.68-2.19,2.68h-2.11V22.15Zm28.35,24.36h4.59l-6.21-15.75,6.21-12.67h-4.47l-5.84,12.38V18.09h-4.47V46.51h4.47V37.78l1.38-2.6,4.34,11.33Zm11.35-21.88c0-2,.89-2.8,2.31-2.8s2.32.77,2.32,2.8V40c0,2-.9,2.8-2.32,2.8s-2.31-.77-2.31-2.8V24.63Zm-4.47,15.06c0,4.55,2.4,7.14,6.78,7.14s6.78-2.59,6.78-7.14V24.91c0-4.54-2.39-7.14-6.78-7.14s-6.78,2.6-6.78,7.14V39.69Zm23.24-21.6h-6.21V46.51h3.9V26.41l3.33,20.1h4.22l3.09-20.38V46.51H236V18.09h-6.21l-3.05,20.18-3.29-20.18Zm20.89,4.06h5.08V46.51h4.54V18.09H239.86V46.51h4.46V22.15Zm18,0H270V18.09H257.82V46.51H270V42.45h-7.72V34.13h6.13V30.07h-6.13V22.15Zm9.81,0h4.67V46.51h4.46V22.15h4.67V18.09h-13.8v4.06Zm20.84,0h7.72V18.09H288.47V46.51h12.18V42.45h-7.72V34.13h6.13V30.07h-6.13V22.15ZM308.5,34.33h5.08V46.51h4.54V18.09h-4.54V30.27H308.5V18.09H304V46.51h4.46V34.33ZM322,46.51h11.69v3.82H338v-7.8h-2V18.09h-4.55V42.45h-5.07V18.09H322V46.51Zm27.42-13,1.83-7v20h4V18.09h-4.91L346.7,29.83l-1.62,6.25v-18h-4V46.51h4.59l3.73-13Zm14.23,13h-4.58V18.09h4v18l1.63-6.25,3.65-11.74h4.91V46.51h-4v-20l-1.82,7-3.74,13Zm4.59-34.75c-.12,1.5-.81,1.87-2,1.87s-1.79-.37-1.91-1.87h-2.76c.08,2.76,1.54,4.51,4.67,4.51S371,14.52,371,11.76ZM100.85,85.48h4.59L99.23,69.73l6.21-12.67H101L95.13,69.45V57.06H90.67V85.48h4.46V76.75l1.38-2.59,4.34,11.32Zm22-28.42h-4.67l-2,9.75L115,73.42l-1.38-6.65-2.43-9.71H106.8L113,79l0,.24c-.36,2.07-1.66,2.48-3.94,2.31v4c6.22.41,8-2.15,9-7.26l4.79-21.2Zm11.1,8.57c0,2.27-1,3-2.68,3h-1.34v4.06H131c2,0,2.92,1,2.92,3.62v2.23c0,2.52-.89,3.21-2.31,3.21s-2.32-.77-2.32-2.8V75.54h-4.22v3.12c0,4.55,2.27,7.15,6.66,7.15s6.66-2.6,6.66-7.15V76.43c0-2.88-.9-5-3.13-6,2.15-.89,3.13-2.8,3.13-5.84v-.74c0-4.54-2.28-7.14-6.66-7.14s-6.58,2.52-6.58,7.06v2.11h4.1V63.6c0-2,.93-2.8,2.36-2.8s2.31.69,2.31,3.25v1.58Zm15.2,19.85c4.47,0,6.74-2.47,6.74-7v-3c0-4.54-2.27-7-6.74-7h-2.6V61.12h8V57.06H142V85.48Zm-2.6-4.06v-9h2.6c1.42,0,2.28.65,2.28,2.68v3.61c0,2-.86,2.68-2.28,2.68Zm22.88-24.36h-6.53L158.3,85.48h4.1l.77-5.15h5.48l.77,5.15h4.51l-4.55-28.42Zm-3.49,5L168,76.47h-4.3l2.15-14.37Zm19.47,12.79V79c0,2-.9,2.76-2.32,2.76S180.73,81,180.73,79V63.6c0-2,.89-2.8,2.31-2.8s2.32.77,2.32,2.8v3.05h4.22V63.88c0-4.54-2.28-7.14-6.66-7.14s-6.66,2.6-6.66,7.14V78.66c0,4.55,2.28,7.15,6.66,7.15s6.66-2.6,6.66-7.15V74.89Zm16.29,0V79c0,2-.89,2.76-2.31,2.76S197,81,197,79V63.6c0-2,.89-2.8,2.31-2.8s2.31.77,2.31,2.8v3.05h4.23V63.88c0-4.54-2.28-7.14-6.66-7.14s-6.66,2.6-6.66,7.14V78.66c0,4.55,2.27,7.15,6.66,7.15s6.66-2.6,6.66-7.15V74.89Zm17.48-17.83H212.6l-4.55,28.42h4.1l.77-5.15h5.48l.77,5.15h4.51l-4.55-28.42Zm-3.49,5,2.15,14.37h-4.3l2.15-14.37Z"/><path fill="#201600" d="M40.58,18.32v5.36h7.27v5a2.68,2.68,0,0,0,1.94,2.58,21.4,21.4,0,0,1,4.43,1.82,2.66,2.66,0,0,0,3.19-.45L61,29.11l5.75,5.76-3.55,3.56a2.68,2.68,0,0,0-.46,3.19,21.43,21.43,0,0,1,1.83,4.43A2.68,2.68,0,0,0,67.12,48h5v8.14h-5a2.69,2.69,0,0,0-2.58,1.95,21.11,21.11,0,0,1-1.83,4.43,2.69,2.69,0,0,0,.46,3.19l3.55,3.55L61,75l-3.56-3.56A2.68,2.68,0,0,0,54.22,71a21.63,21.63,0,0,1-4.43,1.82,2.68,2.68,0,0,0-1.94,2.58v5H40.18v5.37h9a4,4,0,0,0,4-4V77.34c.6-.22,1.19-.47,1.77-.73l3.13,3.13a4,4,0,0,0,5.71,0l7.64-7.64a4,4,0,0,0,0-5.7l-3.13-3.14c.26-.58.5-1.17.73-1.76h4.43a4,4,0,0,0,4-4V46.66a4,4,0,0,0-4-4H69.06c-.23-.6-.47-1.19-.73-1.77l3.13-3.14a4,4,0,0,0,0-5.7l-7.64-7.64a4,4,0,0,0-5.71,0L55,27.51c-.58-.26-1.17-.51-1.77-.73V22.35a4,4,0,0,0-4-4Zm1.76,17.55v5.37h1.44a10.82,10.82,0,0,1,0,21.64H42.34v5.37h1.44a16.19,16.19,0,0,0,0-32.38Z"/><path fill="#5576b8" d="M37.44,21.32,18.34,8.93V65.17l19.1,12.39V21.32Zm5.44,64.49h-39A3.89,3.89,0,0,1,0,81.92V21.53a3.89,3.89,0,0,1,3.88-3.89h9V1.3A1.27,1.27,0,0,1,13.57.16a1.3,1.3,0,0,1,1.33,0l28,18.11V85.81Zm-30-62.72H5.44V80.37H31.77l-17.1-11.1A3.78,3.78,0,0,1,12.9,66V23.09Z"/><polygon fill="#bd566b" points="23.17 28.41 23.17 19.74 33.78 26.62 33.78 35.3 23.17 28.41 23.17 28.41"/><polygon fill="#5576b8" points="23.17 44.36 23.17 35.69 33.78 42.57 33.78 51.25 23.17 44.36 23.17 44.36"/><polygon fill="#5576b8" points="23.17 60.31 23.17 51.64 33.78 58.52 33.78 67.2 23.17 60.31 23.17 60.31"/></g></g></symbol>
  </symbol>
</svg>
